<?xml version="1.0" standalone="no"?>
<!DOCTYPE svg PUBLIC "-//W3C//DTD SVG 20010904//EN"
 "http://www.w3.org/TR/2001/REC-SVG-20010904/DTD/svg10.dtd">
<svg version="1.0" xmlns="http://www.w3.org/2000/svg"
 width="500.000000pt" height="500.000000pt" viewBox="0 0 500.000000 500.000000"
 preserveAspectRatio="xMidYMid meet">

<g transform="translate(0.000000,500.000000) scale(0.100000,-0.100000)"
fill="#000000" stroke="none">
<path d="M1765 3528 c-9 -24 -135 -612 -135 -628 0 -10 112 -95 289 -218 l289
-201 -22 -103 -22 -103 -142 -3 c-78 -1 -142 1 -142 5 1 5 7 35 15 68 25 101
33 91 -151 204 -91 56 -168 101 -170 98 -7 -6 -124 -555 -124 -579 0 -13 7
-34 16 -47 35 -49 55 -51 475 -51 215 0 389 3 387 8 -2 4 -12 23 -22 44 l-19
36 72 334 c39 183 74 339 76 345 3 8 37 -8 97 -46 51 -32 96 -57 101 -54 4 2
7 14 7 27 0 18 -57 62 -290 226 -170 119 -289 209 -286 216 3 7 10 39 17 73
l12 61 140 0 140 0 -7 -42 c-4 -24 -9 -52 -12 -64 -4 -17 7 -29 68 -67 40 -25
74 -45 75 -44 1 2 24 108 52 237 28 129 53 245 56 258 l5 22 -420 0 c-327 0
-422 -3 -425 -12z"/>
<path d="M2657 3458 c-10 -46 -42 -192 -71 -326 l-53 -244 50 -33 c27 -18 55
-31 62 -29 7 3 16 1 20 -5 4 -7 -1 -8 -12 -4 -30 10 -5 -9 109 -87 59 -39 112
-69 117 -65 7 4 8 0 4 -11 -4 -12 -3 -15 5 -10 7 4 12 3 12 -1 0 -12 91 -76
107 -76 7 0 11 -3 8 -5 -8 -9 48 -41 58 -35 6 3 7 1 4 -4 -4 -6 4 -18 18 -27
15 -10 22 -22 19 -31 -4 -8 -2 -15 2 -15 10 0 174 82 256 128 67 38 72 39 57
11 -8 -16 -8 -23 1 -29 9 -6 9 -9 0 -15 -9 -6 -9 -9 0 -15 20 -12 -59 -64
-214 -141 -76 -38 -132 -69 -124 -69 30 0 201 85 342 170 l39 23 -13 -23 c-7
-12 -10 -37 -7 -55 5 -30 2 -34 -56 -72 -87 -57 -221 -121 -250 -119 -14 0
-23 4 -21 8 6 9 -36 33 -56 33 -8 0 -25 19 -36 42 -24 47 -34 40 -34 -22 l0
-33 -110 -1 c-110 -2 -111 -2 -105 21 35 151 34 149 17 155 -9 4 -19 10 -22
13 -14 19 -141 91 -150 85 -6 -4 -9 -1 -8 7 2 7 -5 12 -14 12 -10 -1 -15 3
-11 9 4 6 0 8 -11 4 -9 -4 -15 -3 -11 2 3 5 -11 19 -31 32 -30 18 -38 20 -46
8 -8 -11 -9 -10 -4 3 3 10 1 20 -4 23 -6 4 -10 5 -10 3 0 -2 -29 -133 -64
-293 l-64 -290 24 -37 c13 -21 28 -38 32 -39 4 0 16 -2 27 -4 10 -2 26 2 34 8
12 9 13 9 7 0 -6 -10 66 -13 346 -13 270 0 357 -3 367 -12 10 -11 12 -9 9 7
-1 11 -10 26 -18 33 -13 10 -13 11 3 6 10 -4 17 -3 16 2 -7 41 3 40 113 -7 88
-38 97 -36 23 4 -102 56 -100 54 -100 104 l0 45 39 -6 c21 -4 52 -14 70 -23
17 -10 33 -17 36 -18 3 0 11 -4 18 -9 7 -4 16 -6 18 -3 9 8 55 220 49 225 -3
3 0 11 5 18 6 6 12 28 14 47 2 26 16 50 49 87 48 54 64 99 53 146 -7 27 -7 26
-28 -15 -27 -55 -40 -52 -23 7 8 26 15 59 15 75 0 26 -1 27 -23 13 -16 -11
-26 -12 -37 -5 -12 9 -11 10 5 5 16 -5 16 -3 -5 14 -14 11 -31 18 -38 15 -7
-3 -10 -1 -7 4 7 13 -294 223 -307 215 -6 -4 -8 -3 -5 2 3 6 -32 36 -78 69
-71 50 -84 63 -87 91 -2 18 -1 31 3 28 9 -5 20 52 13 71 -4 8 -1 15 6 15 6 0
8 5 5 10 -4 6 45 10 141 10 l147 0 -6 -37 c-4 -21 -9 -53 -13 -70 -5 -26 -3
-34 12 -41 11 -4 43 -23 73 -42 30 -19 56 -33 59 -32 3 2 8 -1 11 -6 7 -12
172 -115 176 -110 3 3 64 276 71 318 2 14 13 61 23 105 11 44 20 94 20 110 0
37 -23 70 -41 59 -7 -4 -10 -4 -6 1 4 4 3 14 -3 21 -9 11 -110 13 -498 14
l-487 0 -17 -82z m319 -413 c1 -8 -1 -17 -5 -19 -4 -3 -7 6 -7 19 0 25 8 25
12 0z m568 -63 c3 -5 -1 -9 -9 -9 -8 0 -12 4 -9 9 3 4 7 8 9 8 2 0 6 -4 9 -8z
m-929 -82 c3 -6 -1 -7 -9 -4 -18 7 -21 14 -7 14 6 0 13 -4 16 -10z m610 -29
c3 -5 2 -12 -3 -15 -5 -3 -9 1 -9 9 0 17 3 19 12 6z m72 -36 c0 -8 -4 -12 -9
-9 -5 3 -6 10 -3 15 9 13 12 11 12 -6z m93 -60 c0 -2 -5 -7 -12 -11 -7 -4 -8
-3 -4 4 9 15 -7 15 -21 1 -10 -10 -12 0 -4 29 1 4 41 -18 41 -23z m-439 -132
c13 -16 12 -17 -3 -4 -17 13 -22 21 -14 21 2 0 10 -8 17 -17z m-370 -100 c13
-16 12 -17 -3 -4 -17 13 -22 21 -14 21 2 0 10 -8 17 -17z m891 -90 c-3 -16 -7
-22 -10 -15 -4 13 4 42 11 42 2 0 2 -12 -1 -27z"/>
<path d="M2987 1853 c-10 -10 -8 -23 4 -23 5 0 7 6 3 13 -6 9 -5 9 8 0 14 -12
28 -8 28 9 0 10 -34 11 -43 1z"/>
<path d="M1570 1797 c-34 -17 -49 -62 -29 -83 9 -8 28 -16 43 -17 37 -3 28
-22 -11 -21 -31 1 -50 -17 -37 -37 9 -15 91 -10 108 7 37 37 11 94 -43 94 -12
0 -21 5 -21 10 0 6 15 10 34 10 25 0 35 5 39 20 3 11 0 20 -6 20 -7 0 -21 3
-32 5 -11 3 -31 -1 -45 -8z"/>
<path d="M1709 1781 c-75 -75 0 -186 88 -132 54 34 65 123 19 153 -27 18 -78
8 -107 -21z m80 -35 c18 -22 -4 -58 -32 -54 -28 4 -35 38 -11 55 23 17 29 16
43 -1z"/>
<path d="M1873 1803 c-9 -3 -13 -31 -13 -90 0 -84 0 -85 23 -79 12 3 39 6 60
6 33 0 37 3 37 26 0 25 -2 26 -35 20 l-35 -7 0 66 c0 65 -4 72 -37 58z"/>
<path d="M2747 1803 c-4 -3 -25 -6 -47 -5 -36 2 -40 0 -40 -23 0 -20 5 -24 23
-22 23 2 24 1 26 -70 1 -36 4 -43 21 -43 16 0 19 8 22 63 3 54 5 62 23 62 13
0 21 8 23 23 3 17 -1 22 -21 22 -13 0 -27 -3 -30 -7z"/>
<path d="M3064 1802 c-6 -4 -12 -41 -13 -84 l-2 -78 35 0 c50 0 96 46 96 95 0
21 -4 34 -10 30 -5 -3 -7 0 -4 8 9 25 -73 49 -102 29z m74 -75 c3 -27 -28 -54
-48 -42 -11 7 -14 68 -4 78 13 13 49 -11 52 -36z m-17 -70 c-10 -9 -11 -8 -5
6 3 10 9 15 12 12 3 -3 0 -11 -7 -18z m-21 9 c0 -2 -7 -7 -16 -10 -8 -3 -12
-2 -9 4 6 10 25 14 25 6z"/>
<path d="M2000 1715 l0 -85 49 0 c51 0 76 16 62 39 -6 9 -18 11 -34 7 -14 -3
-28 -2 -32 3 -3 6 10 13 30 17 25 4 35 11 35 25 0 15 -7 19 -36 19 -21 0 -33
4 -29 10 3 6 19 10 36 10 22 0 29 5 29 20 0 18 -7 20 -55 20 l-55 0 0 -85z"/>
<path d="M2527 1782 c-36 -40 -6 -90 47 -80 18 4 22 1 19 -16 -4 -18 -10 -21
-45 -18 -35 4 -39 2 -36 -14 3 -20 43 -30 82 -20 27 7 53 55 36 66 -7 4 -12
11 -13 16 -1 5 -13 9 -27 8 -23 -1 -39 11 -40 29 0 4 11 7 24 7 35 0 56 10 56
26 0 22 -83 19 -103 -4z m48 -2 c-3 -5 -12 -10 -18 -10 -7 0 -6 4 3 10 19 12
23 12 15 0z"/>
<path d="M2827 1793 c-12 -11 -8 -43 6 -43 8 0 9 -3 1 -8 -6 -4 -12 -31 -13
-59 -1 -50 0 -53 24 -53 28 0 34 16 8 23 -17 4 -17 5 0 6 11 1 15 6 11 12 -4
8 0 8 15 0 11 -6 26 -21 32 -32 10 -19 12 -20 27 -6 13 13 13 19 2 32 -10 12
-10 19 -2 27 16 16 16 82 0 72 -7 -5 -8 -3 -3 6 4 7 2 16 -6 21 -16 10 -93 12
-102 2z m85 -58 c3 -14 2 -25 -3 -25 -4 0 -14 -3 -23 -6 -13 -5 -16 1 -16 25
0 40 35 45 42 6z"/>
<path d="M2980 1720 c0 -73 2 -80 20 -80 18 0 20 7 20 80 0 73 -2 80 -20 80
-18 0 -20 -7 -20 -80z"/>
<path d="M3212 1792 c-9 -6 -12 -33 -11 -86 l2 -78 49 4 c53 6 71 16 60 35 -5
8 -19 9 -45 4 -33 -8 -36 -7 -27 9 5 9 7 19 5 22 -3 2 11 3 30 2 29 -3 35 0
35 16 0 11 -7 20 -16 20 -8 0 -12 -4 -9 -10 4 -6 -2 -7 -16 -1 -38 13 -34 31
6 31 29 0 36 3 33 18 -2 12 -14 18 -43 20 -22 1 -46 -2 -53 -6z"/>
</g>
</svg>
