<?xml version="1.0" encoding="UTF-8"?>
<svg version="1.1" xmlns="http://www.w3.org/2000/svg" width="500" height="500">
<path d="M0 0 C0.94635818 -0.00817749 1.89271637 -0.01635498 2.86775208 -0.02478027 C6.01509966 -0.04969231 9.16240192 -0.06616687 12.30981445 -0.08056641 C13.38259958 -0.08589008 14.45538471 -0.09121376 15.56067848 -0.09669876 C21.2409659 -0.12345814 26.92123114 -0.14282235 32.6015625 -0.15722656 C38.47189328 -0.173863 44.34166139 -0.21862485 50.21177959 -0.26959801 C54.72167103 -0.30324871 59.23142875 -0.3148018 63.7414341 -0.32045364 C65.90519309 -0.32717428 68.06894305 -0.3424173 70.23258018 -0.36634445 C73.26359219 -0.39794548 76.29308541 -0.3980398 79.32421875 -0.390625 C80.66406326 -0.415233 80.66406326 -0.415233 82.03097534 -0.44033813 C86.32393974 -0.39738483 89.1200449 -0.14560278 92.52693176 2.6043396 C95.8660197 6.11979942 96.23515214 7.93328851 96.16845703 12.75756836 C95.80737931 17.56631366 94.65200648 22.21996483 93.5793457 26.91162109 C93.33518921 28.01010376 93.09103271 29.10858643 92.83947754 30.24035645 C92.06275746 33.7263516 91.27436424 37.20958454 90.4855957 40.69287109 C89.95487321 43.06509377 89.424917 45.43748802 88.89575195 47.81005859 C87.60123074 53.60634507 86.29713197 59.40041233 84.9855957 65.19287109 C81.60205687 65.19287109 80.60671482 64.57958236 77.7746582 62.84912109 C76.53377441 62.09743652 76.53377441 62.09743652 75.26782227 61.33056641 C74.3909375 60.79012695 73.51405273 60.2496875 72.6105957 59.69287109 C71.71824219 59.14985352 70.82588867 58.60683594 69.90649414 58.04736328 C67.26202183 56.43590286 64.62319997 54.81554234 61.9855957 53.19287109 C60.58208516 52.33327515 59.17845345 51.47387701 57.7746582 50.61474609 C54.83985861 48.81567107 51.91068328 47.00770645 48.9855957 45.19287109 C49.12764311 43.60919362 49.27439723 42.02593792 49.4230957 40.44287109 C49.54491211 39.12029297 49.54491211 39.12029297 49.66918945 37.77099609 C49.9855957 35.19287109 49.9855957 35.19287109 50.9855957 31.19287109 C42.4055957 31.52287109 33.8255957 31.85287109 24.9855957 32.19287109 C23.05435736 39.16513597 23.05435736 39.16513597 22.9855957 46.19287109 C24.53778057 47.96669895 24.53778057 47.96669895 26.76293945 49.32177734 C27.57794922 49.87567139 28.39295898 50.42956543 29.23266602 51.00024414 C30.12050781 51.57943604 31.00834961 52.15862793 31.9230957 52.75537109 C33.77112396 54.00221573 35.61877424 55.24962075 37.46606445 56.49755859 C38.39725098 57.11856445 39.3284375 57.73957031 40.2878418 58.37939453 C44.15323183 60.97777617 47.94407768 63.67590979 51.7355957 66.38037109 C59.76312882 72.06598437 67.86526985 77.64088518 75.9855957 83.19287109 C76.4805957 81.21287109 76.4805957 81.21287109 76.9855957 79.19287109 C77.6455957 79.19287109 78.3055957 79.19287109 78.9855957 79.19287109 C79.44132487 81.21110026 79.89705404 83.22932943 80.3527832 85.24755859 C80.89033999 87.40007074 80.89033999 87.40007074 82.9855957 89.19287109 C84.6796491 94.27503128 84.56760318 98.47686522 82.2980957 103.31787109 C80.96904386 105.95409737 79.77292981 107.38112855 77.52661133 109.36962891 C74.51962189 112.71059988 73.89693117 114.98817812 72.96606445 119.35693359 C72.81776688 120.03082123 72.6694693 120.70470886 72.51667786 121.39901733 C72.05133991 123.53530989 71.61230902 125.67607306 71.1730957 127.81787109 C70.86027816 129.26353848 70.5458401 130.70885621 70.22973633 132.15380859 C68.60463756 139.11120785 68.60463756 139.11120785 67.9855957 146.19287109 C70.41003334 147.84590212 70.41003334 147.84590212 73.4855957 149.38037109 C82.72138314 154.56461027 89.39547612 160.80088365 92.5715332 171.09130859 C93.82812133 177.46908609 93.57309304 184.20928349 90.9855957 190.19287109 C90.3255957 188.87287109 89.6655957 187.55287109 88.9855957 186.19287109 C88.86442383 187.18029297 88.74325195 188.16771484 88.6184082 189.18505859 C88.45083008 190.46638672 88.28325195 191.74771484 88.1105957 193.06787109 C87.94817383 194.34404297 87.78575195 195.62021484 87.6184082 196.93505859 C86.9855957 200.19287109 86.9855957 200.19287109 84.9855957 202.19287109 C84.83864258 201.65919922 84.69168945 201.12552734 84.5402832 200.57568359 C80.54888767 187.31690994 73.11166769 178.79777562 61.8605957 171.19287109 C61.28188721 170.80164063 60.70317871 170.41041016 60.10693359 170.00732422 C58.87802521 169.20269559 57.63471571 168.41971075 56.37924194 167.65719604 C54.67674388 166.61568442 52.99743544 165.53584997 51.33546448 164.43081665 C41.87970434 158.63185314 34.34461165 158.25783787 23.52075195 158.46630859 C21.87219058 158.46962945 20.22361754 158.46911897 18.57505798 158.46499634 C14.27470773 158.46110339 9.97561664 158.49424141 5.67553711 158.5401001 C-1.22896147 158.61307786 -8.13280816 158.65368839 -15.03769112 158.64686966 C-17.43692737 158.65368832 -19.83426685 158.69186076 -22.23313904 158.73226929 C-23.70701777 158.73658744 -25.18090094 158.7396359 -26.65478516 158.74121094 C-28.57453407 158.76288834 -28.57453407 158.76288834 -30.5330658 158.78500366 C-35.03021406 158.02009443 -36.91331135 156.49841903 -40.0144043 153.19287109 C-42.07600241 148.92534165 -42.18384988 146.08410212 -41.15576172 141.51049805 C-40.91858932 140.41949295 -40.68141693 139.32848785 -40.4370575 138.204422 C-40.16738663 137.04174301 -39.89771576 135.87906403 -39.61987305 134.68115234 C-39.35306229 133.47597458 -39.08625153 132.27079681 -38.81135559 131.02909851 C-38.1013572 127.83663328 -37.3776246 124.64769707 -36.64727783 121.45983887 C-35.90765394 118.21408909 -35.18792279 114.96399364 -34.46557617 111.71435547 C-33.40578836 106.97000955 -32.34201845 102.22667077 -31.26123047 97.48706055 C-31.04423996 96.53475052 -30.82724945 95.58244049 -30.60368347 94.60127258 C-30.0144043 92.19287109 -30.0144043 92.19287109 -29.0144043 89.19287109 C-25.65126708 90.46394022 -22.61440077 91.90999249 -19.5378418 93.76708984 C-18.29115723 94.51684082 -18.29115723 94.51684082 -17.01928711 95.28173828 C-16.15142578 95.80928711 -15.28356445 96.33683594 -14.3894043 96.88037109 C-13.50091797 97.41694336 -12.61243164 97.95351562 -11.69702148 98.50634766 C-5.41186985 102.31323578 0.82810835 106.18203071 6.9855957 110.19287109 C6.67513838 112.10986969 6.36214899 114.02645833 6.0480957 115.94287109 C5.87407227 117.01021484 5.70004883 118.07755859 5.52075195 119.17724609 C5.10246767 121.53429329 4.56619545 123.87047209 3.9855957 126.19287109 C9.9255957 126.19287109 15.8655957 126.19287109 21.9855957 126.19287109 C22.2949707 124.12005859 22.2949707 124.12005859 22.6105957 122.00537109 C23.76063274 116.76448804 25.65692441 115.222941 29.9855957 112.19287109 C31.33683971 110.87769232 32.673729 109.54733088 33.9855957 108.19287109 C23.60039292 100.1527141 12.78022595 92.74446532 1.98364258 85.27246094 C-3.62771948 81.3801497 -9.21670558 77.45588324 -14.80737305 73.53393555 C-15.58209961 72.9908374 -16.35682617 72.44773926 -17.1550293 71.88818359 C-17.83082031 71.41396973 -18.50661133 70.93975586 -19.20288086 70.45117188 C-20.79374136 69.3461456 -22.40273336 68.26731839 -24.0144043 67.19287109 C-21.17373685 52.4192068 -18.08701131 37.70235052 -14.87814331 23.00485229 C-14.46813771 21.12632084 -14.05939025 19.24751436 -13.65188599 17.36843872 C-13.07355943 14.70486517 -12.49011695 12.04246659 -11.9050293 9.38037109 C-11.72916794 8.56793442 -11.55330658 7.75549774 -11.37211609 6.91844177 C-9.62012586 -0.990105 -7.56563427 0.03567741 0 0 Z M78.9855957 90.19287109 C78.6555957 91.51287109 78.3255957 92.83287109 77.9855957 94.19287109 C78.6455957 93.86287109 79.3055957 93.53287109 79.9855957 93.19287109 C79.6555957 92.20287109 79.3255957 91.21287109 78.9855957 90.19287109 Z M26.9855957 118.19287109 C27.9855957 121.19287109 27.9855957 121.19287109 27.9855957 121.19287109 Z M27.9855957 121.19287109 C28.9855957 123.19287109 28.9855957 123.19287109 28.9855957 123.19287109 Z M65.9855957 159.19287109 C66.9755957 160.18287109 67.9655957 161.17287109 68.9855957 162.19287109 C69.6455957 161.86287109 70.3055957 161.53287109 70.9855957 161.19287109 C68.5105957 160.20287109 68.5105957 160.20287109 65.9855957 159.19287109 Z M70.9855957 162.19287109 C71.3155957 162.85287109 71.6455957 163.51287109 71.9855957 164.19287109 C72.6455957 163.86287109 73.3055957 163.53287109 73.9855957 163.19287109 C72.9955957 162.86287109 72.0055957 162.53287109 70.9855957 162.19287109 Z M74.9855957 165.19287109 C75.9755957 166.67787109 75.9755957 166.67787109 76.9855957 168.19287109 C77.6455957 167.86287109 78.3055957 167.53287109 78.9855957 167.19287109 C77.6655957 166.53287109 76.3455957 165.87287109 74.9855957 165.19287109 Z M80.9855957 170.19287109 C81.3155957 171.18287109 81.6455957 172.17287109 81.9855957 173.19287109 C81.9855957 172.20287109 81.9855957 171.21287109 81.9855957 170.19287109 C81.6555957 170.19287109 81.3255957 170.19287109 80.9855957 170.19287109 Z M83.9855957 174.19287109 C84.9855957 176.19287109 84.9855957 176.19287109 84.9855957 176.19287109 Z M84.9855957 176.19287109 C85.9855957 178.19287109 85.9855957 178.19287109 85.9855957 178.19287109 Z M85.9855957 178.19287109 C86.9855957 180.19287109 86.9855957 180.19287109 86.9855957 180.19287109 Z M86.9855957 180.19287109 C87.9855957 183.19287109 87.9855957 183.19287109 87.9855957 183.19287109 Z " fill="#1B92C7" transform="translate(276.014404296875,144.80712890625)"/>
<path d="M0 0 C28.38 0 56.76 0 86 0 C80.01129518 29.9435241 80.01129518 29.9435241 77.8125 39.9375 C77.4422168 41.67483398 77.4422168 41.67483398 77.06445312 43.44726562 C76.82275391 44.54619141 76.58105469 45.64511719 76.33203125 46.77734375 C76.12296143 47.73890381 75.9138916 48.70046387 75.69848633 49.69116211 C75 52 75 52 73 54 C70.68074204 52.57253413 68.36993512 51.13385146 66.0625 49.6875 C65.40314453 49.28337891 64.74378906 48.87925781 64.06445312 48.46289062 C59.11328125 45.33984375 59.11328125 45.33984375 58 42 C58.66 38.7 59.32 35.4 60 32 C47.13 31.505 47.13 31.505 34 31 C33.34 35.95 32.68 40.9 32 46 C33.17433594 46.79921875 34.34867187 47.5984375 35.55859375 48.421875 C45.72125922 55.34980468 55.81999044 62.35827003 65.85009766 69.4765625 C68.13042305 71.09241879 70.41434775 72.70307842 72.69921875 74.3125 C73.47120605 74.85640381 74.24319336 75.40030762 75.03857422 75.96069336 C76.51523711 77.00088933 77.9921129 78.04078316 79.46923828 79.08032227 C82.68008584 81.34422216 85.87680936 83.61545599 89 86 C88.67 88.31 88.34 90.62 88 93 C81.30882688 89.84378626 75.19506198 86.03297423 69 82 C65.87976919 94.0837227 63.09247776 106.22972886 60.42578125 118.42089844 C59.74461691 121.52452727 59.05197543 124.62546845 58.359375 127.7265625 C57.92116613 129.72380293 57.48364121 131.72119358 57.046875 133.71875 C56.84068542 134.63346069 56.63449585 135.54817139 56.42205811 136.49060059 C54.66911775 144.62097134 53.93851626 150.40889547 58 158 C47.26457193 158.09269402 36.52923912 158.16376206 25.79349232 158.20724869 C20.80839207 158.22812051 15.82356568 158.25643087 10.83862305 158.30175781 C6.02755226 158.34522985 1.21674483 158.36914016 -3.59450722 158.37950897 C-5.42974303 158.3868979 -7.26496447 158.4013268 -9.10008812 158.42292023 C-11.67145268 158.45197257 -14.24173005 158.45595529 -16.81323242 158.45410156 C-17.57136734 158.46848267 -18.32950226 158.48286377 -19.11061096 158.49768066 C-22.73401942 158.46942978 -24.80345049 158.12534302 -27.88667297 156.15911865 C-31.97316726 151.9840781 -31.97316726 151.9840781 -32.06211853 148.72183228 C-31.31131434 141.71269193 -30.09167373 134.90367973 -28.56640625 128.0234375 C-28.32840805 126.93157135 -28.09040985 125.8397052 -27.84519958 124.7147522 C-27.34508446 122.43002349 -26.84154808 120.14604119 -26.3347168 117.86279297 C-25.55747914 114.3523228 -24.79674351 110.83853513 -24.03710938 107.32421875 C-23.54785958 105.09874165 -23.05765985 102.87347313 -22.56640625 100.6484375 C-22.22567833 99.06740738 -22.22567833 99.06740738 -21.87806702 97.45443726 C-21.6612175 96.4889798 -21.44436798 95.52352234 -21.22094727 94.52880859 C-21.03299088 93.67596283 -20.84503448 92.82311707 -20.65138245 91.94442749 C-20 90 -20 90 -18 89 C-15.94384766 89.95288086 -15.94384766 89.95288086 -13.4140625 91.46484375 C-12.48803223 92.01438721 -11.56200195 92.56393066 -10.60791016 93.13012695 C-9.6235498 93.72656006 -8.63918945 94.32299316 -7.625 94.9375 C-6.63161621 95.53199951 -5.63823242 96.12649902 -4.61474609 96.73901367 C2.39637272 100.96022705 9.28869998 105.31341707 16 110 C15.88265487 111.33402882 15.75557824 112.6672014 15.625 114 C15.55539063 114.7425 15.48578125 115.485 15.4140625 116.25 C14.86725327 119.88163867 13.89073003 123.43707988 13 127 C21.91 127 30.82 127 40 127 C41.67066815 117.01132894 41.67066815 117.01132894 43 107 C42.40799805 106.58862793 41.81599609 106.17725586 41.20605469 105.75341797 C2.37783075 78.7681764 2.37783075 78.7681764 -14 67 C-13.33420406 59.58127084 -11.92272773 52.46258158 -10.3125 45.1953125 C-10.04993408 43.99437958 -9.78736816 42.79344666 -9.5168457 41.55612183 C-8.96423894 39.03270832 -8.40943152 36.50977584 -7.85253906 33.98730469 C-6.99836505 30.11759307 -6.15095383 26.24644784 -5.3046875 22.375 C-4.76601659 19.91918491 -4.22696741 17.46345275 -3.6875 15.0078125 C-3.43331299 13.84847198 -3.17912598 12.68913147 -2.91723633 11.49465942 C-2.68029053 10.42279388 -2.44334473 9.35092834 -2.19921875 8.24658203 C-1.99127686 7.30332062 -1.78333496 6.3600592 -1.5690918 5.38821411 C-1 3 -1 3 0 0 Z " fill="#080808" transform="translate(176,145)"/>
<path d="M0 0 C0.66 0 1.32 0 2 0 C2.45572917 2.01822917 2.91145833 4.03645833 3.3671875 6.0546875 C3.90474428 8.20719964 3.90474428 8.20719964 6 10 C7.6940534 15.08216019 7.58200748 19.28399412 5.3125 24.125 C3.98344816 26.76122628 2.78733411 28.18825746 0.54101562 30.17675781 C-2.46597381 33.51772878 -3.08866453 35.79530703 -4.01953125 40.1640625 C-4.24197762 41.17489395 -4.24197762 41.17489395 -4.46891785 42.20614624 C-4.93425579 44.34243879 -5.37328669 46.48320197 -5.8125 48.625 C-6.12531754 50.07066738 -6.4397556 51.51598512 -6.75585938 52.9609375 C-8.38095815 59.91833675 -8.38095815 59.91833675 -9 67 C-6.57556236 68.65303103 -6.57556236 68.65303103 -3.5 70.1875 C5.73578744 75.37173918 12.40988042 81.60801255 15.5859375 91.8984375 C16.84252563 98.27621499 16.58749734 105.0164124 14 111 C13.34 109.68 12.68 108.36 12 107 C11.87882813 107.98742187 11.75765625 108.97484375 11.6328125 109.9921875 C11.38144531 111.91417969 11.38144531 111.91417969 11.125 113.875 C10.88136719 115.78925781 10.88136719 115.78925781 10.6328125 117.7421875 C10 121 10 121 8 123 C7.85304688 122.46632813 7.70609375 121.93265625 7.5546875 121.3828125 C3.56329197 108.12403884 -3.87392801 99.60490453 -15.125 92 C-15.7037085 91.60876953 -16.28241699 91.21753906 -16.87866211 90.81445312 C-18.10757049 90.00982449 -19.35088 89.22683966 -20.60635376 88.46432495 C-22.30885182 87.42281332 -23.98816026 86.34297888 -25.65013123 85.23794556 C-35.10589136 79.43898205 -42.64098405 79.06496678 -53.46484375 79.2734375 C-55.11340512 79.27675835 -56.76197816 79.27624788 -58.41053772 79.27212524 C-62.71088797 79.2682323 -67.00997907 79.30137032 -71.31005859 79.347229 C-78.21455717 79.42020677 -85.11840386 79.46081729 -92.02328682 79.45399857 C-94.42252308 79.46081722 -96.81986256 79.49898967 -99.21873474 79.53939819 C-100.69261347 79.54371634 -102.16649665 79.5467648 -103.64038086 79.54833984 C-104.92021347 79.56279144 -106.20004608 79.57724304 -107.5186615 79.59213257 C-112.01580977 78.82722334 -113.89890705 77.30554793 -117 74 C-119.06159811 69.73247055 -119.16944559 66.89123103 -118.14135742 62.31762695 C-117.90418503 61.22662186 -117.66701263 60.13561676 -117.4226532 59.0115509 C-117.15298233 57.84887192 -116.88331146 56.68619293 -116.60546875 55.48828125 C-116.33865799 54.28310349 -116.07184723 53.07792572 -115.79695129 51.83622742 C-115.0869529 48.64376219 -114.36322031 45.45482598 -113.63287354 42.26696777 C-112.89324965 39.021218 -112.1735185 35.77112255 -111.45117188 32.52148438 C-110.39138407 27.77713845 -109.32761415 23.03379968 -108.24682617 18.29418945 C-108.02983566 17.34187943 -107.81284515 16.3895694 -107.58927917 15.40840149 C-107 13 -107 13 -106 10 C-102.63686278 11.27106912 -99.59999647 12.7171214 -96.5234375 14.57421875 C-95.27675293 15.32396973 -95.27675293 15.32396973 -94.00488281 16.08886719 C-93.13702148 16.61641602 -92.26916016 17.14396484 -91.375 17.6875 C-90.48651367 18.22407227 -89.59802734 18.76064453 -88.68261719 19.31347656 C-82.39746555 23.12036468 -76.15748735 26.98915961 -70 31 C-70.31045732 32.9169986 -70.62344671 34.83358723 -70.9375 36.75 C-71.11152344 37.81734375 -71.28554688 38.8846875 -71.46484375 39.984375 C-71.88312803 42.34142219 -72.41940025 44.677601 -73 47 C-67.06 47 -61.12 47 -55 47 C-54.79375 45.618125 -54.5875 44.23625 -54.375 42.8125 C-53.27059325 37.81525526 -51.25422264 35.91956455 -47 33 C-46.05125 32.236875 -45.1025 31.47375 -44.125 30.6875 C-43.42375 30.130625 -42.7225 29.57375 -42 29 C-41.505 29.99 -41.505 29.99 -41 31 C-36.00885395 28.36976345 -31.02293483 25.73007166 -26.04199219 23.08056641 C-24.46316313 22.24509326 -22.87747988 21.4225653 -21.2890625 20.60546875 C-10.16936932 14.83538645 -10.16936932 14.83538645 -2 6 C-1.34 6 -0.68 6 0 6 C0 4.02 0 2.04 0 0 Z M2 11 C1.67 12.32 1.34 13.64 1 15 C1.66 14.67 2.32 14.34 3 14 C2.67 13.01 2.34 12.02 2 11 Z M-50 39 C-49 42 -49 42 -49 42 Z M-49 42 C-48 44 -48 44 -48 44 Z M-11 80 C-10.01 80.99 -9.02 81.98 -8 83 C-7.34 82.67 -6.68 82.34 -6 82 C-8.475 81.01 -8.475 81.01 -11 80 Z M-6 83 C-5.67 83.66 -5.34 84.32 -5 85 C-4.34 84.67 -3.68 84.34 -3 84 C-3.99 83.67 -4.98 83.34 -6 83 Z M-2 86 C-1.01 87.485 -1.01 87.485 0 89 C0.66 88.67 1.32 88.34 2 88 C0.68 87.34 -0.64 86.68 -2 86 Z M4 91 C4.33 91.99 4.66 92.98 5 94 C5 93.01 5 92.02 5 91 C4.67 91 4.34 91 4 91 Z M7 95 C8 97 8 97 8 97 Z M8 97 C9 99 9 99 9 99 Z M9 99 C10 101 10 101 10 101 Z M10 101 C11 104 11 104 11 104 Z " fill="#1C92C7" transform="translate(353,224)"/>
<path d="M0 0 C0.66 0 1.32 0 2 0 C2.45572917 2.01822917 2.91145833 4.03645833 3.3671875 6.0546875 C3.90474428 8.20719964 3.90474428 8.20719964 6 10 C7.6940534 15.08216019 7.58200748 19.28399412 5.3125 24.125 C3.85993472 26.83954575 2.83714497 28.13902259 0.4375 30.1875 C-3.46860331 34.69454228 -3.96239929 40.23836352 -5 46 C-5.33 46 -5.66 46 -6 46 C-6 43.03 -6 40.06 -6 37 C-7.69358726 37.84679363 -9.3871068 38.69372294 -11.08032227 39.54125977 C-12.53537241 40.26804806 -13.99160728 40.992469 -15.44897461 41.71459961 C-18.82858146 43.39269023 -22.17481178 45.09533408 -25.48828125 46.90234375 C-33.07617647 51 -33.07617647 51 -37.8125 51 C-38.864375 50.67 -39.91625 50.34 -41 50 C-42.258125 49.79375 -43.51625 49.5875 -44.8125 49.375 C-45.864375 48.92125 -46.91625 48.4675 -48 48 C-49.25 44.4375 -49.25 44.4375 -50 41 C-50.99 40.67 -51.98 40.34 -53 40 C-51.74426522 36.23279565 -50.14598994 35.35949246 -47 33 C-46.071875 32.2575 -45.14375 31.515 -44.1875 30.75 C-43.1046875 29.88375 -43.1046875 29.88375 -42 29 C-41.67 29.66 -41.34 30.32 -41 31 C-36.00885395 28.36976345 -31.02293483 25.73007166 -26.04199219 23.08056641 C-24.46316313 22.24509326 -22.87747988 21.4225653 -21.2890625 20.60546875 C-10.16936932 14.83538645 -10.16936932 14.83538645 -2 6 C-1.34 6 -0.68 6 0 6 C0 4.02 0 2.04 0 0 Z M2 11 C1.67 12.32 1.34 13.64 1 15 C1.66 14.67 2.32 14.34 3 14 C2.67 13.01 2.34 12.02 2 11 Z " fill="#979796" transform="translate(353,224)"/>
<path d="M0 0 C0.66 0.33 1.32 0.66 2 1 C1.7525 2.010625 1.505 3.02125 1.25 4.0625 C1.11520604 6.06085969 1.11520604 6.06085969 2 8 C4.80333501 10.04295329 7.74660167 11.56778013 10.8125 13.1875 C18.6882815 17.66588556 23.92281507 24.26992084 26.5859375 32.8984375 C27.84252563 39.27621499 27.58749734 46.0164124 25 52 C24.34 50.68 23.68 49.36 23 48 C22.81824219 49.48113281 22.81824219 49.48113281 22.6328125 50.9921875 C22.46523438 52.27351563 22.29765625 53.55484375 22.125 54.875 C21.96257812 56.15117187 21.80015625 57.42734375 21.6328125 58.7421875 C21 62 21 62 19 64 C18.85304688 63.46632813 18.70609375 62.93265625 18.5546875 62.3828125 C12.68660455 42.88998522 -2.12831242 33.45771147 -19 24 C-16.35285362 22.41171217 -14.56476261 21.94654979 -11.4375 21.5625 C-8.10437075 21.24420537 -8.10437075 21.24420537 -6 19.75 C-4.54820772 17.20936351 -5.31064457 15.8200904 -6 13 C-6.09939357 10.32631292 -6.04536978 7.67681705 -6 5 C-3.525 5.99 -3.525 5.99 -1 7 C-0.67 4.69 -0.34 2.38 0 0 Z M0 21 C0.99 21.99 1.98 22.98 3 24 C3.66 23.67 4.32 23.34 5 23 C2.525 22.01 2.525 22.01 0 21 Z M5 24 C5.33 24.66 5.66 25.32 6 26 C6.66 25.67 7.32 25.34 8 25 C7.01 24.67 6.02 24.34 5 24 Z M9 27 C9.99 28.485 9.99 28.485 11 30 C11.66 29.67 12.32 29.34 13 29 C11.68 28.34 10.36 27.68 9 27 Z M15 32 C15.33 32.99 15.66 33.98 16 35 C16 34.01 16 33.02 16 32 C15.67 32 15.34 32 15 32 Z M18 36 C19 38 19 38 19 38 Z M19 38 C20 40 20 40 20 40 Z M20 40 C21 42 21 42 21 42 Z M21 42 C22 45 22 45 22 45 Z " fill="#38B8E2" transform="translate(342,283)"/>
<path d="M0 0 C2.6399773 2.6399773 2.95162761 4.50660164 3.3125 8.1875 C2.83704586 13.98804056 0.89629453 18.38121199 -3.5625 22.1875 C-7.46860331 26.69454228 -7.96239929 32.23836352 -9 38 C-9.33 38 -9.66 38 -10 38 C-10 35.03 -10 32.06 -10 29 C-11.69358726 29.84679363 -13.3871068 30.69372294 -15.08032227 31.54125977 C-16.53537241 32.26804806 -17.99160728 32.992469 -19.44897461 33.71459961 C-22.82858146 35.39269023 -26.17481178 37.09533408 -29.48828125 38.90234375 C-37.95291096 43.4734589 -37.95291096 43.4734589 -42.0625 43.0625 C-44.87167022 42.04641716 -46.32930998 41.45689708 -48 39 C-48 38.34 -48 37.68 -48 37 C-46.21142578 36.16855469 -46.21142578 36.16855469 -44.38671875 35.3203125 C-42.8202527 34.58866968 -41.25384974 33.85689179 -39.6875 33.125 C-38.90181641 32.76019531 -38.11613281 32.39539063 -37.30664062 32.01953125 C-36.54931641 31.66503906 -35.79199219 31.31054688 -35.01171875 30.9453125 C-34.31522217 30.62062988 -33.61872559 30.29594727 -32.90112305 29.96142578 C-30.759181 28.92576491 -30.759181 28.92576491 -28 27 C-27.01 27 -26.02 27 -25 27 C-25 26.34 -25 25.68 -25 25 C-23.2675 24.13375 -23.2675 24.13375 -21.5 23.25 C-20.77167969 22.88132813 -20.04335938 22.51265625 -19.29296875 22.1328125 C-17.83070893 21.41040135 -16.35480794 20.71455854 -14.86328125 20.0546875 C-8.63802209 17.23257001 -5.79331057 13.68996586 -2 8 C-1.33841957 5.95415921 -1.33841957 5.95415921 -0.875 3.8125 C-0.441875 1.9253125 -0.441875 1.9253125 0 0 Z " fill="#7C878B" transform="translate(357,232)"/>
<path d="M0 0 C2.375 1.4375 2.375 1.4375 4 4 C4.85210487 8.66049192 4.65434946 11.95304086 2.125 16 C-1.19320132 19.12301301 -3.47542645 19.26745144 -8.0234375 19.234375 C-10.67840657 18.91955653 -12.13201674 17.86798326 -14 16 C-14.495 16.66 -14.99 17.32 -15.5 18 C-19.14994603 20.91995682 -21.38841978 20.36599843 -26 20 C-26.99 19.67 -27.98 19.34 -29 19 C-28.625 16.5625 -28.625 16.5625 -28 14 C-27.34 13.67 -26.68 13.34 -26 13 C-26.53625 12.46375 -27.0725 11.9275 -27.625 11.375 C-29 9 -29 9 -28.3125 5.875 C-27 3 -27 3 -25 1 C-22.87109375 0.76953125 -22.87109375 0.76953125 -20.4375 0.8125 C-19.22900391 0.82216797 -19.22900391 0.82216797 -17.99609375 0.83203125 C-16 1 -16 1 -15 2 C-15 3.66666667 -15 5.33333333 -15 7 C-14.67 7.33 -14.34 7.66 -14 8 C-13.4121875 6.8553125 -13.4121875 6.8553125 -12.8125 5.6875 C-9.5308802 0.82164994 -5.8361675 -0.86921644 0 0 Z M-6 7 C-6.66 8.32 -7.32 9.64 -8 11 C-6.515 11.99 -6.515 11.99 -5 13 C-4.01 12.34 -3.02 11.68 -2 11 C-2.33 9.68 -2.66 8.36 -3 7 C-3.99 7 -4.98 7 -6 7 Z " fill="#262626" transform="translate(181,318)"/>
<path d="M0 0 C0.66 0.66 1.32 1.32 2 2 C2.639375 1.67 3.27875 1.34 3.9375 1 C7 0 7 0 16 0 C16 5.94 16 11.88 16 18 C12.52669872 18.69466026 10.08697137 19.12011816 6.6875 19.0625 C4.8621875 19.0315625 4.8621875 19.0315625 3 19 C2.67 17.02 2.34 15.04 2 13 C1.566875 13.639375 1.13375 14.27875 0.6875 14.9375 C-1 17 -1 17 -4 18 C-6.64 18 -9.28 18 -12 18 C-12 12.06 -12 6.12 -12 0 C-7.30052291 -1.17486927 -4.72982389 -0.8391623 0 0 Z M-7 6 C-7 7.98 -7 9.96 -7 12 C-5.68 11.34 -4.36 10.68 -3 10 C-3.33 8.68 -3.66 7.36 -4 6 C-4.99 6 -5.98 6 -7 6 Z M9 6 C13 7 13 7 13 7 Z M10 12 C14 13 14 13 14 13 Z " fill="#3E9CC6" transform="translate(316,319)"/>
<path d="M0 0 C0 0.66 0 1.32 0 2 C0.99 1.67 1.98 1.34 3 1 C9.90410959 0.56164384 9.90410959 0.56164384 13.5 2 C15.8320649 5.10941986 15.25476313 8.31301142 15 12 C15 13.32 15 14.64 15 16 C15 16.99 15 17.98 15 19 C13.02 19.99 13.02 19.99 11 21 C10.01 20.01 9.02 19.02 8 18 C7.34 18.66 6.68 19.32 6 20 C4.02 20 2.04 20 0 20 C0 15.38 0 10.76 0 6 C-1.65 6.33 -3.3 6.66 -5 7 C-5 10.96 -5 14.92 -5 19 C-6.98 19 -8.96 19 -11 19 C-11.33 15.37 -11.66 11.74 -12 8 C-13.32 8 -14.64 8 -16 8 C-16 5.69 -16 3.38 -16 1 C-10.65097076 0.40801257 -5.39115154 -0.14187241 0 0 Z M7 7 C7.33 8.32 7.66 9.64 8 11 C8.33 9.68 8.66 8.36 9 7 C8.34 7 7.68 7 7 7 Z " fill="#3B9BC5" transform="translate(281,318)"/>
<path d="M0 0 C1.98 0 3.96 0 6 0 C6 3.96 6 7.92 6 12 C7.98 11.67 9.96 11.34 12 11 C12.33 7.7 12.66 4.4 13 1 C17 0 17 0 26 0 C26 5.94 26 11.88 26 18 C22.52669872 18.69466026 20.08697137 19.12011816 16.6875 19.0625 C14.8621875 19.0315625 14.8621875 19.0315625 13 19 C13 18.34 13 17.68 13 17 C12.34 17.33 11.68 17.66 11 18 C7.32984725 18.1377685 3.67388652 18.04271961 0 18 C0 12.06 0 6.12 0 0 Z M19 6 C23 7 23 7 23 7 Z M19 12 C23 13 23 13 23 13 Z " fill="#323232" transform="translate(186,319)"/>
<path d="M0 0 C10.78622964 3.88148228 18.24329293 11.17675435 23.13671875 21.3671875 C24.16606405 24.50645777 24.26554864 27.13730074 24.25 30.4375 C24.25515625 31.52933594 24.2603125 32.62117188 24.265625 33.74609375 C23.99044769 37.11701578 23.19775781 39.84875625 22 43 C21.34 42.67 20.68 42.34 20 42 C19.359375 40.03125 19.359375 40.03125 18.75 37.5 C15.89389529 27.57432919 9.86678585 21.41580091 2 15 C2.66 14.67 3.32 14.34 4 14 C4.66 14.33 5.32 14.66 6 15 C5.649375 14.236875 5.29875 13.47375 4.9375 12.6875 C4 10 4 10 5 7 C5.33 6.34 5.66 5.68 6 5 C5.01 5 4.02 5 3 5 C3 4.34 3 3.68 3 3 C2.34 3 1.68 3 1 3 C0.67 2.01 0.34 1.02 0 0 Z M2 10 C4 11 4 11 4 11 Z " fill="#34CBF5" transform="translate(340,304)"/>
<path d="M0 0 C0.51046875 0.23589844 1.0209375 0.47179687 1.546875 0.71484375 C1.03125 1.45734375 0.515625 2.19984375 -0.015625 2.96484375 C-1.7197489 5.53311721 -1.7197489 5.53311721 -1.04296875 7.88671875 C-0.75099609 8.79164063 -0.75099609 8.79164063 -0.453125 9.71484375 C-3.40820406 11.22131973 -6.36769841 12.7189074 -9.328125 14.21484375 C-10.59076172 14.85873047 -10.59076172 14.85873047 -11.87890625 15.515625 C-13.08740234 16.12470703 -13.08740234 16.12470703 -14.3203125 16.74609375 C-15.06394043 17.12314453 -15.80756836 17.50019531 -16.57373047 17.88867188 C-18.453125 18.71484375 -18.453125 18.71484375 -20.453125 18.71484375 C-20.783125 20.03484375 -21.113125 21.35484375 -21.453125 22.71484375 C-22.443125 22.38484375 -23.433125 22.05484375 -24.453125 21.71484375 C-24.783125 20.06484375 -25.113125 18.41484375 -25.453125 16.71484375 C-26.443125 16.38484375 -27.433125 16.05484375 -28.453125 15.71484375 C-27.19739022 11.9476394 -25.59911494 11.07433621 -22.453125 8.71484375 C-21.0609375 7.60109375 -21.0609375 7.60109375 -19.640625 6.46484375 C-18.91875 5.88734375 -18.196875 5.30984375 -17.453125 4.71484375 C-17.123125 5.37484375 -16.793125 6.03484375 -16.453125 6.71484375 C-15.48890625 6.19792969 -14.5246875 5.68101562 -13.53125 5.1484375 C-12.25553811 4.48244085 -10.97947799 3.81711093 -9.703125 3.15234375 C-9.06890625 2.81009766 -8.4346875 2.46785156 -7.78125 2.11523438 C-3.00217062 -0.34897843 -3.00217062 -0.34897843 0 0 Z " fill="#9F9FA2" transform="translate(328.453125,248.28515625)"/>
<path d="M0 0 C6.978336 3.38343563 12.10125624 9.91418193 15 17 C17.06004286 23.77077023 16.80382462 31.51615558 14 38 C12.33350522 34.83290585 11.08147143 31.59350153 9.8125 28.25 C6.17347229 19.48858725 0.85183593 14.12772958 -7 9 C-6.401875 8.87625 -5.80375 8.7525 -5.1875 8.625 C-2.73768652 8.04524015 -2.73768652 8.04524015 0 6 C0.33 7.65 0.66 9.3 1 11 C1.99 11.33 2.98 11.66 4 12 C4.69159401 10.15274948 4.69159401 10.15274948 5 8 C3.22475332 5.10388633 3.22475332 5.10388633 1.375 3.4375 C0 2 0 2 0 0 Z " fill="#54D4F2" transform="translate(353,297)"/>
<path d="M0 0 C0.80308594 0.01417969 1.60617188 0.02835937 2.43359375 0.04296875 C3.64208984 0.05263672 3.64208984 0.05263672 4.875 0.0625 C6.87109375 0.23046875 6.87109375 0.23046875 7.87109375 1.23046875 C7.87109375 2.89713542 7.87109375 4.56380208 7.87109375 6.23046875 C8.20109375 6.56046875 8.53109375 6.89046875 8.87109375 7.23046875 C9.20109375 7.23046875 9.53109375 7.23046875 9.87109375 7.23046875 C10.19578778 11.88441656 9.66899893 14.46405793 6.87109375 18.23046875 C3.72767382 19.80217871 0.31337924 19.46222658 -3.12890625 19.23046875 C-4.11890625 18.90046875 -5.10890625 18.57046875 -6.12890625 18.23046875 C-5.75390625 15.79296875 -5.75390625 15.79296875 -5.12890625 13.23046875 C-4.46890625 12.90046875 -3.80890625 12.57046875 -3.12890625 12.23046875 C-3.66515625 11.69421875 -4.20140625 11.15796875 -4.75390625 10.60546875 C-6.12890625 8.23046875 -6.12890625 8.23046875 -5.44140625 5.10546875 C-3.27237484 0.35425709 -3.27237484 0.35425709 0 0 Z " fill="#333333" transform="translate(158.12890625,318.76953125)"/>
<path d="M0 0 C0.625 1.8125 0.625 1.8125 1 4 C0.01 5.485 0.01 5.485 -1 7 C-0.34 7.33 0.32 7.66 1 8 C1.8125 10.25 1.8125 10.25 2 13 C-0.19402985 17.59701493 -0.19402985 17.59701493 -3 19 C-4.875 19.1328125 -4.875 19.1328125 -7 19.125 C-8.051875 19.12886719 -8.051875 19.12886719 -9.125 19.1328125 C-11 19 -11 19 -13 18 C-12.835 17.21625 -12.67 16.4325 -12.5 15.625 C-11.9376293 13.11791961 -11.9376293 13.11791961 -12 11 C-12.33 10.67 -12.66 10.34 -13 10 C-13.38298208 6.55316129 -13.37706052 4.62296955 -11.5625 1.625 C-7.79880462 -0.76173366 -4.34043107 -0.33387931 0 0 Z " fill="#3190BD" transform="translate(263,319)"/>
<path d="M0 0 C0 4.1216293 -1.52178918 5.7391963 -4 9 C-9.61142306 14.36202648 -15.70338647 16.68643961 -23 19 C-23 19.66 -23 20.32 -23 21 C-26.45533314 22.67294007 -29.91473993 24.33727763 -33.375 26 C-34.35984375 26.47695313 -35.3446875 26.95390625 -36.359375 27.4453125 C-37.77089844 28.12207031 -37.77089844 28.12207031 -39.2109375 28.8125 C-40.08024902 29.23144531 -40.94956055 29.65039062 -41.84521484 30.08203125 C-44 31 -44 31 -46 31 C-45.67 31.99 -45.34 32.98 -45 34 C-46.65 34 -48.3 34 -50 34 C-47.80838617 29.61677234 -44.2179336 27.35840397 -39.9375 25.23828125 C-38.97585938 24.75939453 -38.01421875 24.28050781 -37.0234375 23.78710938 C-35.52683594 23.05717773 -35.52683594 23.05717773 -34 22.3125 C-32.50339844 21.56516602 -32.50339844 21.56516602 -30.9765625 20.80273438 C-22.91021878 16.81822008 -22.91021878 16.81822008 -19 16 C-19 15.34 -19 14.68 -19 14 C-17.19005554 11.65771894 -15.05964382 10.44243483 -12.5 9.0625 C-10.06532282 7.74052644 -9.01599662 7.02132883 -7.3125 4.75 C-6.879375 4.1725 -6.44625 3.595 -6 3 C-4.68 3 -3.36 3 -2 3 C-2 2.34 -2 1.68 -2 1 C-1.34 0.67 -0.68 0.34 0 0 Z " fill="#408DAF" transform="translate(355,238)"/>
<path d="M0 0 C1.21236328 0.01353516 1.21236328 0.01353516 2.44921875 0.02734375 C3.37154297 0.04474609 3.37154297 0.04474609 4.3125 0.0625 C4.3125 1.7125 4.3125 3.3625 4.3125 5.0625 C2.0025 5.0625 -0.3075 5.0625 -2.6875 5.0625 C-2.6875 5.7225 -2.6875 6.3825 -2.6875 7.0625 C-0.7075 7.0625 1.2725 7.0625 3.3125 7.0625 C3.3125 8.3825 3.3125 9.7025 3.3125 11.0625 C0.6725 11.0625 -1.9675 11.0625 -4.6875 11.0625 C-4.3575 11.7225 -4.0275 12.3825 -3.6875 13.0625 C-1.36593403 13.46979228 0.9693787 13.80688677 3.3125 14.0625 C3.3125 15.0525 3.3125 16.0425 3.3125 17.0625 C-0.3175 17.3925 -3.9475 17.7225 -7.6875 18.0625 C-7.6875 12.4525 -7.6875 6.8425 -7.6875 1.0625 C-4.80538698 0.10179566 -2.98899956 -0.04331883 0 0 Z " fill="#2A93C3" transform="translate(327.6875,318.9375)"/>
<path d="M0 0 C-0.33 0.66 -0.66 1.32 -1 2 C-0.34 2.33 0.32 2.66 1 3 C0.67 3.33 0.34 3.66 0 4 C0.99 4.66 1.98 5.32 3 6 C-8.64314516 12.59587041 -8.64314516 12.59587041 -13.0625 12.0625 C-15.87167022 11.04641716 -17.32930998 10.45689708 -19 8 C-19 7.34 -19 6.68 -19 6 C-16.58967749 4.79783666 -14.17316521 3.61325022 -11.75 2.4375 C-11.06808594 2.09525391 -10.38617188 1.75300781 -9.68359375 1.40039062 C-5.97831091 -0.38030356 -3.92128522 -1.3058334 0 0 Z " fill="#9BA7B0" transform="translate(328,263)"/>
<path d="M0 0 C0.33 0 0.66 0 1 0 C1.33 3.63 1.66 7.26 2 11 C3.32 10.34 4.64 9.68 6 9 C6.99 9 7.98 9 9 9 C8.81171228 6.55519921 8.81171228 6.55519921 8 4 C6.03241727 2.63979849 6.03241727 2.63979849 4 2 C7.44107266 -0.29404844 8.96839809 -0.26293056 13 0 C14 1 14 1 14.0625 4.8125 C14.04416777 6.20836842 14.0233064 7.60420577 14 9 C14 10.32 14 11.64 14 13 C14 13.99 14 14.98 14 16 C12.02 16.99 12.02 16.99 10 18 C9.01 17.01 8.02 16.02 7 15 C6.67 15.33 6.34 15.66 6 16 C4.02 16 2.04 16 0 16 C0 10.72 0 5.44 0 0 Z " fill="#208DBE" transform="translate(282,321)"/>
<path d="M0 0 C1.98 0 3.96 0 6 0 C6 3.96 6 7.92 6 12 C7.65 12 9.3 12 11 12 C11.38218767 13.65614657 11.71395102 15.32457024 12 17 C11 18 11 18 8.49609375 18.09765625 C5.6640625 18.06510417 2.83203125 18.03255208 0 18 C0 12.06 0 6.12 0 0 Z " fill="#222222" transform="translate(186,319)"/>
<path d="M0 0 C1.98 0 3.96 0 6 0 C6 0.66 6 1.32 6 2 C6.99 1.67 7.98 1.34 9 1 C11.72331488 0.76811378 14.25039269 0.86906632 17 1 C17.66 1.66 18.32 2.32 19 3 C17.02 3.66 15.04 4.32 13 5 C13.99 5.66 14.98 6.32 16 7 C16.1875 9.625 16.1875 9.625 16 12 C14.6078125 12.3403125 14.6078125 12.3403125 13.1875 12.6875 C9.49280817 14.2088437 8.67517239 15.46352496 7 19 C8.65 19 10.3 19 12 19 C12 19.33 12 19.66 12 20 C10.02 20 8.04 20 6 20 C5.67 13.73 5.34 7.46 5 1 C3.35 1 1.7 1 0 1 C0 0.67 0 0.34 0 0 Z M13 7 C13.33 8.32 13.66 9.64 14 11 C14.33 9.68 14.66 8.36 15 7 C14.34 7 13.68 7 13 7 Z " fill="#60B2D7" transform="translate(275,318)"/>
<path d="M0 0 C0.66 0 1.32 0 2 0 C3.75179535 5.25538604 3.64761951 9.48888781 1.5 14.5 C1.005 15.325 0.51 16.15 0 17 C-1.32 17 -2.64 17 -4 17 C-4.3403125 17.928125 -4.3403125 17.928125 -4.6875 18.875 C-6.37929835 21.61410209 -7.99244161 22.05024472 -11 23 C-11.33 22.34 -11.66 21.68 -12 21 C-10.53149344 16.96160696 -8.80309814 14.70994203 -5.4375 12.1875 C-1.65988125 9.19887757 -0.9220164 6.41833619 -0.19140625 1.7578125 C-0.09666016 0.88769531 -0.09666016 0.88769531 0 0 Z " fill="#7A7B7D" transform="translate(353,224)"/>
<path d="M0 0 C4.29571018 2.27419951 8.15975198 5.01217702 11 9 C11.375 12.375 11.375 12.375 11 15 C10.67 14.01 10.34 13.02 10 12 C8.35 12.33 6.7 12.66 5 13 C5.04125 12.236875 5.0825 11.47375 5.125 10.6875 C4.96812927 7.31477921 3.77847397 5.74853266 1.375 3.4375 C0 2 0 2 0 0 Z M-1 6 C1 8 1 8 2 11 C2.99 11.66 3.98 12.32 5 13 C5.33 13.99 5.66 14.98 6 16 C6.99 16.33 7.98 16.66 9 17 C9.625 19.375 9.625 19.375 10 22 C9.34 22.66 8.68 23.32 8 24 C7.67128906 23.50371094 7.34257812 23.00742187 7.00390625 22.49609375 C3.0657361 16.87166105 -1.42248294 12.96623436 -7 9 C-6.38125 8.87625 -5.7625 8.7525 -5.125 8.625 C-2.80879168 8.12802644 -2.80879168 8.12802644 -1 6 Z " fill="#53CEED" transform="translate(353,297)"/>
<path d="M0 0 C0.33 0.99 0.66 1.98 1 3 C1.99 3.33 2.98 3.66 4 4 C3.01 5.98 2.02 7.96 1 10 C2.65 10 4.3 10 6 10 C3.37801226 12.15377564 1.35595828 13.40072174 -2 14 C-2.33 15.32 -2.66 16.64 -3 18 C-3.99 17.67 -4.98 17.34 -6 17 C-6.33 15.35 -6.66 13.7 -7 12 C-7.99 11.67 -8.98 11.34 -10 11 C-8.75004375 7.25013126 -7.09908146 6.37836484 -4 4 C-2.64852862 2.68505488 -1.30887458 1.35735142 0 0 Z " fill="#B7C3CB" transform="translate(310,253)"/>
<path d="M0 0 C1.98 0 3.96 0 6 0 C6 5.94 6 11.88 6 18 C4.02 18 2.04 18 0 18 C0 12.06 0 6.12 0 0 Z " fill="#3B96C0" transform="translate(297,319)"/>
<path d="M0 0 C4.12444658 1.45568703 7.54187879 3.31035017 11 6 C12.25 8.625 12.25 8.625 13 11 C13.66 11.66 14.32 12.32 15 13 C14.01 13.33 13.02 13.66 12 14 C10.78130071 16.50447516 10.78130071 16.50447516 10 19 C6.20411134 18.45773019 4.52788007 16.79872437 2 14 C3.32 14.33 4.64 14.66 6 15 C5.649375 14.236875 5.29875 13.47375 4.9375 12.6875 C4 10 4 10 5 7 C5.33 6.34 5.66 5.68 6 5 C5.01 5 4.02 5 3 5 C3 4.34 3 3.68 3 3 C2.34 3 1.68 3 1 3 C0.67 2.01 0.34 1.02 0 0 Z M2 10 C4 11 4 11 4 11 Z " fill="#39C2E9" transform="translate(340,304)"/>
<path d="M0 0 C2.52259061 1.97420135 2.9929808 2.96745642 3.6875 6.1875 C3.790625 7.115625 3.89375 8.04375 4 9 C5.36125 8.87625 5.36125 8.87625 6.75 8.75 C10 9 10 9 12.375 11 C12.91125 11.66 13.4475 12.32 14 13 C12.35 14.65 10.7 16.3 9 18 C8.34 17.34 7.68 16.68 7 16 C7 14.33333333 7 12.66666667 7 11 C5.68 11 4.36 11 3 11 C3 11.66 3 12.32 3 13 C3.66 13.33 4.32 13.66 5 14 C5 14.99 5 15.98 5 17 C4.01 17 3.02 17 2 17 C-1.32241475 11.73950997 -1.59251079 7.05044668 -1 1 C-0.67 0.67 -0.34 0.34 0 0 Z " fill="#227EAF" transform="translate(301,263)"/>
<path d="M0 0 C1.125 3.75 1.125 3.75 0 6 C-2.28515625 6.4140625 -2.28515625 6.4140625 -5.0625 6.625 C-5.98160156 6.69976562 -6.90070313 6.77453125 -7.84765625 6.8515625 C-8.55792969 6.90054687 -9.26820313 6.94953125 -10 7 C-10 8.32 -10 9.64 -10 11 C-8.35 11 -6.7 11 -5 11 C-5 11.33 -5 11.66 -5 12 C-7.875 12.125 -7.875 12.125 -11 12 C-13 10 -13 10 -13.375 7.125 C-13 4 -13 4 -11.5625 1.625 C-7.79880462 -0.76173366 -4.34043107 -0.33387931 0 0 Z " fill="#71B4D2" transform="translate(263,319)"/>
<path d="M0 0 C5.1652435 4.24287859 7.67513762 9.68798845 8.3203125 16.265625 C8.41192107 21.99770394 8.02556266 26.59579883 6 32 C5.34 31.67 4.68 31.34 4 31 C3.3671875 28.71484375 3.3671875 28.71484375 2.875 25.9375 C2.70742188 25.01839844 2.53984375 24.09929687 2.3671875 23.15234375 C2.24601562 22.44207031 2.12484375 21.73179687 2 21 C2.99 20.67 3.98 20.34 5 20 C4.85795259 18.41632253 4.71119847 16.83306682 4.5625 15.25 C4.48128906 14.36828125 4.40007812 13.4865625 4.31640625 12.578125 C4.03761535 10.30649548 3.61209423 8.20148177 3 6 C1.35 5.67 -0.3 5.34 -2 5 C-2 4.34 -2 3.68 -2 3 C-1.34 3 -0.68 3 0 3 C0 2.01 0 1.02 0 0 Z " fill="#6EDAEF" transform="translate(356,315)"/>
<path d="M0 0 C0.33 0 0.66 0 1 0 C1.17577672 4.92174824 0.86433911 8.73615929 -0.48828125 13.50390625 C-1.65987015 19.21875591 -1.71208334 25.18105282 -2 31 C-2.66 31 -3.32 31 -4 31 C-3.46930939 34.82097239 -2.50298434 37.06171403 0 40 C-3 40 -3 40 -5.3203125 37.76953125 C-7.91400172 33.5526228 -6.66255457 29.63650312 -5.671875 25.02539062 C-5.27742187 23.37313477 -5.27742187 23.37313477 -4.875 21.6875 C-4.63523438 20.59759766 -4.39546875 19.50769531 -4.1484375 18.38476562 C-3.45494258 15.25084699 -2.72996799 12.12559021 -2 9 C-1.6042249 7.23624644 -1.21068286 5.4719889 -0.8203125 3.70703125 C-0.54960937 2.48371094 -0.27890625 1.26039063 0 0 Z " fill="#5AAACC" transform="translate(241,260)"/>
<path d="M0 0 C0.33 0 0.66 0 1 0 C1 5.61 1 11.22 1 17 C4.63 16.67 8.26 16.34 12 16 C12 15.01 12 14.02 12 13 C11.4225 13.20625 10.845 13.4125 10.25 13.625 C7.48032433 14.08661261 6.35438733 13.42944945 4 12 C4 11.34 4 10.68 4 10 C6.64 10 9.28 10 12 10 C12 8.68 12 7.36 12 6 C9.03 5.505 9.03 5.505 6 5 C6 4.67 6 4.34 6 4 C8.31 4 10.62 4 13 4 C13 8.29 13 12.58 13 17 C9.52669872 17.69466026 7.08697137 18.12011816 3.6875 18.0625 C1.8621875 18.0315625 1.8621875 18.0315625 0 18 C-0.19484938 15.56288386 -0.38115178 13.12562602 -0.5625 10.6875 C-0.64661133 9.65206055 -0.64661133 9.65206055 -0.73242188 8.59570312 C-0.96581505 5.37487726 -1.03224218 3.09672655 0 0 Z M7 11 C11 12 11 12 11 12 Z " fill="#84C5DE" transform="translate(319,320)"/>
<path d="M0 0 C2.64 0.33 5.28 0.66 8 1 C8 1.99 8 2.98 8 4 C10.97 4.495 10.97 4.495 14 5 C14 5.99 14 6.98 14 8 C16.33214148 9.20628008 18.49642139 10.1654738 21 11 C21.33 11.99 21.66 12.98 22 14 C22.66 14.33 23.32 14.66 24 15 C23.67 15.66 23.34 16.32 23 17 C20.47860449 15.27164846 17.95787282 13.54234179 15.4375 11.8125 C14.73302734 11.32974609 14.02855469 10.84699219 13.30273438 10.34960938 C11.19836348 8.90467267 9.09805399 7.45409194 7 6 C6.3105127 5.52353027 5.62102539 5.04706055 4.91064453 4.55615234 C3.25509869 3.39697827 1.62472242 2.20199569 0 1 C0 0.67 0 0.34 0 0 Z " fill="#4BA5C9" transform="translate(258,215)"/>
<path d="M0 0 C0.66 0.33 1.32 0.66 2 1 C0.02 1.99 0.02 1.99 -2 3 C-2 3.66 -2 4.32 -2 5 C-3.5 6.625 -3.5 6.625 -5 8 C-4.34 8.33 -3.68 8.66 -3 9 C-2.67 9.99 -2.34 10.98 -2 12 C-5.4352048 14.29013653 -6.985331 14.17842973 -11 14 C-11 13.01 -11 12.02 -11 11 C-11.3062434 9.66018514 -11.63451555 8.32488113 -12 7 C-9 5 -9 5 -6 5 C-6 4.34 -6 3.68 -6 3 C-4.03533587 1.93224776 -2.03144641 0.93446535 0 0 Z " fill="#A0A2A0" transform="translate(338,254)"/>
<path d="M0 0 C1.15172095 3.45516285 0.79718066 4.82220244 0.00390625 8.32421875 C-0.22490234 9.35224609 -0.45371094 10.38027344 -0.68945312 11.43945312 C-0.93630859 12.51130859 -1.18316406 13.58316406 -1.4375 14.6875 C-1.68048828 15.77095703 -1.92347656 16.85441406 -2.17382812 17.97070312 C-2.77551699 20.64880847 -3.38450297 23.32504042 -4 26 C-4.66 26 -5.32 26 -6 26 C-6.27561917 23.73213358 -6.51971457 21.46041721 -6.75 19.1875 C-6.88921875 17.92292969 -7.0284375 16.65835938 -7.171875 15.35546875 C-7.11515625 14.24816406 -7.0584375 13.14085937 -7 12 C-5.125 10.34375 -5.125 10.34375 -3 9 C-1.89194801 6.7552339 -1.89194801 6.7552339 -1.25 4.3125 C-1.00765625 3.50425781 -0.7653125 2.69601563 -0.515625 1.86328125 C-0.34546875 1.24839844 -0.1753125 0.63351563 0 0 Z " fill="#4DA6CC" transform="translate(369,166)"/>
<path d="M0 0 C0 4.1216293 -1.52178918 5.7391963 -4 9 C-9.10416667 14 -9.10416667 14 -12 14 C-12 13.34 -12 12.68 -12 12 C-13.32 12.33 -14.64 12.66 -16 13 C-16 12.34 -16 11.68 -16 11 C-14.906875 10.4225 -13.81375 9.845 -12.6875 9.25 C-10.23214342 7.86947823 -9.03339339 7.04452452 -7.3125 4.75 C-6.879375 4.1725 -6.44625 3.595 -6 3 C-4.68 3 -3.36 3 -2 3 C-2 2.34 -2 1.68 -2 1 C-1.34 0.67 -0.68 0.34 0 0 Z " fill="#6D8FA2" transform="translate(355,238)"/>
<path d="M0 0 C4.48525648 0.656379 8.66914029 1.70074209 13 3 C13.33 2.34 13.66 1.68 14 1 C15.65 1.33 17.3 1.66 19 2 C18.62875 2.9075 18.2575 3.815 17.875 4.75 C16.67493316 7.8703187 16.67493316 7.8703187 17.9453125 10.203125 C18.29335938 10.79609375 18.64140625 11.3890625 19 12 C14.10107782 9.32570915 9.24347836 6.58833815 4.4375 3.75 C3.59058594 3.24984375 2.74367188 2.7496875 1.87109375 2.234375 C1.25363281 1.82703125 0.63617188 1.4196875 0 1 C0 0.67 0 0.34 0 0 Z " fill="#29AEDC" transform="translate(323,306)"/>
<path d="M0 0 C0.66 0.33 1.32 0.66 2 1 C2 6 2 11 2 16 C0.02 16.99 0.02 16.99 -2 18 C-2.99 17.01 -3.98 16.02 -5 15 C-5.99 15.495 -5.99 15.495 -7 16 C-7.33 14.35 -7.66 12.7 -8 11 C-6.02 11 -4.04 11 -2 11 C-2 10.01 -2 9.02 -2 8 C-1.34 8 -0.68 8 0 8 C0 5.36 0 2.72 0 0 Z " fill="#51A6CC" transform="translate(294,321)"/>
<path d="M0 0 C3.3 0 6.6 0 10 0 C10.33 0.99 10.66 1.98 11 3 C8.69 3.33 6.38 3.66 4 4 C4 6.97 4 9.94 4 13 C5.32 12.67 6.64 12.34 8 12 C8 12.99 8 13.98 8 15 C5.69 15 3.38 15 1 15 C1.03255208 12.94921875 1.06510417 10.8984375 1.09765625 8.84765625 C1.20561184 6.98267859 1.20561184 6.98267859 0 6 C-0.04080783 4.00041636 -0.04254356 1.99954746 0 0 Z " fill="#1C8FC5" transform="translate(305,320)"/>
<path d="M0 0 C0.33 1.32 0.66 2.64 1 4 C0.34 4 -0.32 4 -1 4 C-1 4.66 -1 5.32 -1 6 C-4.3 6.33 -7.6 6.66 -11 7 C-11.66 5.68 -12.32 4.36 -13 3 C-11.68 3 -10.36 3 -9 3 C-9 2.34 -9 1.68 -9 1 C-5.57367167 -0.61798838 -3.61944899 -1.34053666 0 0 Z " fill="#ADB0B2" transform="translate(325,266)"/>
<path d="M0 0 C0.86625 0.3403125 0.86625 0.3403125 1.75 0.6875 C1.75 1.3475 1.75 2.0075 1.75 2.6875 C3.07 3.3475 4.39 4.0075 5.75 4.6875 C1.19573816 7.35340937 -1.98946963 8.00313182 -7.25 7.6875 C-6.91753345 4.61218444 -6.61895244 3.06917494 -4.4375 0.8125 C-2.25 -0.3125 -2.25 -0.3125 0 0 Z " fill="#B8B5B3" transform="translate(318.25,255.3125)"/>
<path d="M0 0 C0.33 0.99 0.66 1.98 1 3 C0.30132812 3.60328125 -0.39734375 4.2065625 -1.1171875 4.828125 C-2.02726562 5.62734375 -2.93734375 6.4265625 -3.875 7.25 C-4.77992188 8.03890625 -5.68484375 8.8278125 -6.6171875 9.640625 C-8.74439993 11.74691403 -9.90512306 13.25651526 -11 16 C-11.9075 15.938125 -12.815 15.87625 -13.75 15.8125 C-17.28982642 16.01672076 -18.44931155 16.64551835 -21 19 C-21.66 18.34 -22.32 17.68 -23 17 C-22.33355469 16.5875 -21.66710937 16.175 -20.98046875 15.75 C-9.0276023 9.3156469 -9.0276023 9.3156469 0 0 Z " fill="#618A9C" transform="translate(351,230)"/>
<path d="M0 0 C0.33 0 0.66 0 1 0 C2.125 6.75 2.125 6.75 1 9 C0.77377919 10.70363822 0.59111527 12.41328701 0.4375 14.125 C0.35371094 15.03507813 0.26992188 15.94515625 0.18359375 16.8828125 C0.12300781 17.58148438 0.06242187 18.28015625 0 19 C-0.66 19 -1.32 19 -2 19 C-2 20.65 -2 22.3 -2 24 C-2.66 24 -3.32 24 -4 24 C-4.33 24.99 -4.66 25.98 -5 27 C-4.39828638 20.67250629 -3.37848091 14.62404348 -1.9375 8.4375 C-1.75123047 7.61958984 -1.56496094 6.80167969 -1.37304688 5.95898438 C-0.91979313 3.97164104 -0.46053788 1.98566799 0 0 Z " fill="#59A9CC" transform="translate(261,169)"/>
<path d="M0 0 C0.66 0.33 1.32 0.66 2 1 C2.33 1.99 2.66 2.98 3 4 C2.67 4.33 2.34 4.66 2 5 C1.92851801 6.35243917 1.91600546 7.70834367 1.9375 9.0625 C1.958125 10.361875 1.97875 11.66125 2 13 C1.01 13.495 1.01 13.495 0 14 C-0.66 13.67 -1.32 13.34 -2 13 C-2.625 10.4375 -2.625 10.4375 -3 8 C-3.99 7.67 -4.98 7.34 -6 7 C-4.77065985 3.31197956 -3.06140622 2.27643027 0 0 Z " fill="#CBD6DA" transform="translate(306,257)"/>
<path d="M0 0 C1.485 0.99 1.485 0.99 3 2 C5.15274948 1.69159401 5.15274948 1.69159401 7 1 C7.66 1.99 8.32 2.98 9 4 C8.01 4.495 8.01 4.495 7 5 C7 5.99 7 6.98 7 8 C6.01 7.67 5.02 7.34 4 7 C3.67 7.33 3.34 7.66 3 8 C2.01 8.33 1.02 8.66 0 9 C-0.84454356 5.62182575 -1.10844919 3.32534757 0 0 Z " fill="#21AADA" transform="translate(337,292)"/>
<path d="M0 0 C0.66 0 1.32 0 2 0 C3.28317892 3.84953676 3.06643637 6.94738135 3 11 C2.030625 11.28875 1.06125 11.5775 0.0625 11.875 C-3.10664203 12.64214682 -3.10664203 12.64214682 -4 15 C-4.66 15 -5.32 15 -6 15 C-5.6875 13.125 -5.6875 13.125 -5 11 C-4.01 10.34 -3.02 9.68 -2 9 C-1.20562077 6.81494871 -1.20562077 6.81494871 -0.8125 4.375 C-0.65394531 3.55773437 -0.49539063 2.74046875 -0.33203125 1.8984375 C-0.22246094 1.27195313 -0.11289062 0.64546875 0 0 Z " fill="#6C7073" transform="translate(353,224)"/>
<path d="M0 0 C0.22429687 0.58265625 0.44859375 1.1653125 0.6796875 1.765625 C2.37805353 4.6397829 4.35834074 5.9055605 7.125 7.75 C8.03507812 8.36359375 8.94515625 8.9771875 9.8828125 9.609375 C10.58148438 10.06828125 11.28015625 10.5271875 12 11 C10.66666667 11.33333333 9.33333333 11.66666667 8 12 C6.88625 12.2784375 6.88625 12.2784375 5.75 12.5625 C5.1725 12.706875 4.595 12.85125 4 13 C1 7.25 1 7.25 1 5 C0.34 5 -0.32 5 -1 5 C-0.67 3.35 -0.34 1.7 0 0 Z " fill="#3DA2C9" transform="translate(297,187)"/>
<path d="M0 0 C0.33 0 0.66 0 1 0 C1 3.63 1 7.26 1 11 C-0.32 11 -1.64 11 -3 11 C-3.66 12.32 -4.32 13.64 -5 15 C-5.66 14.67 -6.32 14.34 -7 14 C-6.3993671 10.89445488 -5.42254404 8.93568949 -3.5 6.4375 C-1.76352292 4.17099358 -0.92509236 2.77527707 0 0 Z " fill="#6E7276" transform="translate(356,237)"/>
<path d="M0 0 C3.96930989 -0.02465881 7.93859034 -0.04284023 11.90795898 -0.05493164 C13.25920386 -0.05997057 14.61044326 -0.06680177 15.96166992 -0.07543945 C17.90020434 -0.08752419 19.838778 -0.09269828 21.77734375 -0.09765625 C23.52905884 -0.10551147 23.52905884 -0.10551147 25.31616211 -0.11352539 C28 0 28 0 29 1 C29.25 3.9375 29.25 3.9375 29 7 C28.01 7.66 27.02 8.32 26 9 C26.33 6.36 26.66 3.72 27 1 C13.635 1.495 13.635 1.495 0 2 C0 1.34 0 0.68 0 0 Z " fill="#58ABD0" transform="translate(300,175)"/>
<path d="M0 0 C2.5 1.25 2.5 1.25 5 3 C5 4.32 5 5.64 5 7 C4.34 7 3.68 7 3 7 C3.33 7.99 3.66 8.98 4 10 C3.01 10.33 2.02 10.66 1 11 C1 12.65 1 14.3 1 16 C-0.32 14.68 -1.64 13.36 -3 12 C-2.34 12 -1.68 12 -1 12 C-0.87625 11.21625 -0.7525 10.4325 -0.625 9.625 C0 7 0 7 2 5 C1.34 3.35 0.68 1.7 0 0 Z " fill="#52CDED" transform="translate(351,311)"/>
<path d="M0 0 C3.93619738 0.56231391 6.79192446 1.61685817 10 4 C10 4.99 10 5.98 10 7 C9.34 7 8.68 7 8 7 C8 7.66 8 8.32 8 9 C7.01 9 6.02 9 5 9 C5 7.68 5 6.36 5 5 C3.35 4.67 1.7 4.34 0 4 C0 2.68 0 1.36 0 0 Z " fill="#1591C8" transform="translate(253,326)"/>
<path d="M0 0 C0.66 0.33 1.32 0.66 2 1 C1.01 1.99 0.02 2.98 -1 4 C-0.67 2.68 -0.34 1.36 0 0 Z M-4.5 3.6875 C-2.7675 3.8421875 -2.7675 3.8421875 -1 4 C-0.34 4.99 0.32 5.98 1 7 C-0.32 7.33 -1.64 7.66 -3 8 C-3 8.66 -3 9.32 -3 10 C-3.99 10 -4.98 10 -6 10 C-6 9.01 -6 8.02 -6 7 C-7.32 6.67 -8.64 6.34 -10 6 C-8 4 -8 4 -4.5 3.6875 Z " fill="#808683" transform="translate(342,241)"/>
<path d="M0 0 C0 2.97 0 5.94 0 9 C-0.33 8.34 -0.66 7.68 -1 7 C-1.66 7 -2.32 7 -3 7 C-3 6.34 -3 5.68 -3 5 C-7.455 5.495 -7.455 5.495 -12 6 C-8.4142816 2.4142816 -5.18781778 0 0 0 Z " fill="#1B91BE" transform="translate(347,261)"/>
<path d="M0 0 C0.33 0 0.66 0 1 0 C1.3690205 11.52164009 1.3690205 11.52164009 -1 17 C-2.61725534 13.99049877 -3.67582623 11.02896392 -4.625 7.75 C-5.01558594 6.41195313 -5.01558594 6.41195313 -5.4140625 5.046875 C-5.60742188 4.37140625 -5.80078125 3.6959375 -6 3 C-5.01 3.33 -4.02 3.66 -3 4 C-1.8125 6.5625 -1.8125 6.5625 -1 9 C-0.67 6.03 -0.34 3.06 0 0 Z " fill="#9DE5F5" transform="translate(368,318)"/>
<path d="M0 0 C-0.185625 0.721875 -0.37125 1.44375 -0.5625 2.1875 C-1.01995307 5.12826973 -0.73516357 7.14103058 0 10 C-1.32 9.67 -2.64 9.34 -4 9 C-4 8.34 -4 7.68 -4 7 C-4.99 6.67 -5.98 6.34 -7 6 C-6.67 4.35 -6.34 2.7 -6 1 C-3 0 -3 0 0 0 Z " fill="#2DB5E0" transform="translate(346,309)"/>
<path d="M0 0 C2.729 2.729 2.97507461 4.5513429 3.1875 8.375 C3.0109867 11.7875905 2.47474505 13.95833833 1 17 C-0.8466683 13.85409472 -1.24774283 11.56849948 -1.1875 7.9375 C-1.18105469 7.08027344 -1.17460937 6.22304687 -1.16796875 5.33984375 C-1 3 -1 3 0 0 Z " fill="#999696" transform="translate(357,232)"/>
<path d="M0 0 C2.97 0 5.94 0 9 0 C8 4 8 4 6 6 C6.33 6.66 6.66 7.32 7 8 C2.25 6.125 2.25 6.125 0 5 C0 3.35 0 1.7 0 0 Z " fill="#3DA2CF" transform="translate(325,185)"/>
<path d="M0 0 C1.32 0.33 2.64 0.66 4 1 C4.33 2.32 4.66 3.64 5 5 C4.195625 5.12375 3.39125 5.2475 2.5625 5.375 C1.2940625 5.684375 1.2940625 5.684375 0 6 C-0.33 6.66 -0.66 7.32 -1 8 C-1.66 7.34 -2.32 6.68 -3 6 C-3 5.01 -3 4.02 -3 3 C-2.01 2.67 -1.02 2.34 0 2 C0 1.34 0 0.68 0 0 Z " fill="#929293" transform="translate(336,257)"/>
<path d="M0 0 C2.0625 1.625 2.0625 1.625 4 4 C3.75 7.25 3.75 7.25 3 10 C0.525 9.01 0.525 9.01 -2 8 C-2.33 5.69 -2.66 3.38 -3 1 C-2.01 0.67 -1.02 0.34 0 0 Z " fill="#2EC3EE" transform="translate(355,300)"/>
<path d="M0 0 C0.66 0.33 1.32 0.66 2 1 C2 3.97 2 6.94 2 10 C0.35 10.66 -1.3 11.32 -3 12 C-4.5625 10.75 -4.5625 10.75 -6 9 C-5.6875 6.8125 -5.6875 6.8125 -5 5 C-3.68 5.66 -2.36 6.32 -1 7 C-0.67 4.69 -0.34 2.38 0 0 Z " fill="#3FACD8" transform="translate(342,283)"/>
<path d="M0 0 C0.66 0.33 1.32 0.66 2 1 C0.02 1.99 0.02 1.99 -2 3 C-2 3.99 -2 4.98 -2 6 C-10.03571429 8.27678571 -10.03571429 8.27678571 -14 7 C-11.71296692 5.80274117 -9.42115138 4.61702982 -7.125 3.4375 C-6.14853516 2.92413086 -6.14853516 2.92413086 -5.15234375 2.40039062 C-3.46470143 1.53917109 -1.73420407 0.76313297 0 0 Z " fill="#92ABBB" transform="translate(326,248)"/>
<path d="M0 0 C0 0.66 0 1.32 0 2 C-0.99 2.495 -0.99 2.495 -2 3 C-1.67 3.99 -1.34 4.98 -1 6 C3.455 5.505 3.455 5.505 8 5 C6.4375 6.5625 6.4375 6.5625 4 8 C0.42500295 7.87456151 -2.02777466 7.72132848 -4.9375 5.5625 C-6 4 -6 4 -6 2 C-2.25 0 -2.25 0 0 0 Z " fill="#A1C1D1" transform="translate(315,267)"/>
<path d="M0 0 C0 0.99 0 1.98 0 3 C0.66 3 1.32 3 2 3 C2 4.65 2 6.3 2 8 C1.01 8 0.02 8 -1 8 C-1 7.01 -1 6.02 -1 5 C-2.65 4.67 -4.3 4.34 -6 4 C-5.67 3.01 -5.34 2.02 -5 1 C-3 0 -3 0 0 0 Z " fill="#31CCF5" transform="translate(363,309)"/>
<path d="M0 0 C0.33 0 0.66 0 1 0 C0.97679687 1.03640625 0.95359375 2.0728125 0.9296875 3.140625 C0.91092333 4.51040944 0.89272382 5.8802017 0.875 7.25 C0.85824219 7.93191406 0.84148437 8.61382812 0.82421875 9.31640625 C0.78786518 13.0608235 0.92055651 15.82352727 3 19 C0.5625 18.1875 0.5625 18.1875 -2 17 C-3.30211046 13.09366863 -2.47812346 10.80461827 -1.5625 6.8125 C-1.27503906 5.54019531 -0.98757812 4.26789063 -0.69140625 2.95703125 C-0.46324219 1.98121094 -0.23507813 1.00539062 0 0 Z " fill="#78B8D4" transform="translate(255,196)"/>
<path d="M0 0 C2.64 0 5.28 0 8 0 C8 1.32 8 2.64 8 4 C5.36 4 2.72 4 0 4 C0 2.68 0 1.36 0 0 Z " fill="#208EBC" transform="translate(254,320)"/>
<path d="M0 0 C0 0.66 0 1.32 0 2 C-1.41328129 2.81837442 -2.83078346 3.62946219 -4.25 4.4375 C-5.43335938 5.11619141 -5.43335938 5.11619141 -6.640625 5.80859375 C-8.78833468 6.89311602 -10.65205061 7.53148716 -13 8 C-13 7.34 -13 6.68 -13 6 C-10 4 -10 4 -7 4 C-7 3.34 -7 2.68 -7 2 C-4.35261084 0.5393715 -3.10551666 0 0 0 Z " fill="#3F89AA" transform="translate(343,250)"/>
<path d="M0 0 C3.69876091 1.37287342 6.9514476 3.06355453 10.3125 5.125 C11.19550781 5.66382813 12.07851563 6.20265625 12.98828125 6.7578125 C13.65214844 7.16773438 14.31601562 7.57765625 15 8 C12.62392051 8.83583327 11.45550373 9.1842383 9.078125 8.22265625 C7.38541667 7.1484375 5.69270833 6.07421875 4 5 C4 4.34 4 3.68 4 3 C2.68 2.67 1.36 2.34 0 2 C0 1.34 0 0.68 0 0 Z " fill="#61AECF" transform="translate(252,237)"/>
<path d="M0 0 C1.32 0 2.64 0 4 0 C3.34 1.98 2.68 3.96 2 6 C0.68 6 -0.64 6 -2 6 C-2.33 6.99 -2.66 7.98 -3 9 C-3.33 8.01 -3.66 7.02 -4 6 C-2.3125 2.8125 -2.3125 2.8125 0 0 Z " fill="#6B767B" transform="translate(351,235)"/>
<path d="M0 0 C4.77609498 1.64178265 8.79382904 4.26546702 13 7 C12.67 7.99 12.34 8.98 12 10 C12 9.34 12 8.68 12 8 C11.01 8 10.02 8 9 8 C9 7.34 9 6.68 9 6 C7.88625 5.7525 6.7725 5.505 5.625 5.25 C2 4 2 4 0.5625 1.875 C0.376875 1.25625 0.19125 0.6375 0 0 Z " fill="#71B7D3" transform="translate(270,248)"/>
<path d="M0 0 C1.67542976 0.28604898 3.34385343 0.61781233 5 1 C5 2.65 5 4.3 5 6 C3.02 6.33 1.04 6.66 -1 7 C-1.04254356 5.00045254 -1.04080783 2.99958364 -1 1 C-0.67 0.67 -0.34 0.34 0 0 Z M2 1 C2.33 2.32 2.66 3.64 3 5 C3.33 3.68 3.66 2.36 4 1 C3.34 1 2.68 1 2 1 Z " fill="#58AFD2" transform="translate(286,324)"/>
<path d="M0 0 C0.99 0.33 1.98 0.66 3 1 C2.01 5.29 1.02 9.58 0 14 C-0.33 14 -0.66 14 -1 14 C-1 11.03 -1 8.06 -1 5 C-2.65 5.33 -4.3 5.66 -6 6 C-5.67 5.34 -5.34 4.68 -5 4 C-1.9375 3.375 -1.9375 3.375 1 3 C0.67 2.01 0.34 1.02 0 0 Z " fill="#72ABC6" transform="translate(348,256)"/>
<path d="M0 0 C0.66 0.33 1.32 0.66 2 1 C0.02 1.99 0.02 1.99 -2 3 C-2 3.66 -2 4.32 -2 5 C-5.41831915 7.5393228 -7.75776898 8.3636198 -12 8 C-10.6875 6.5 -10.6875 6.5 -9 5 C-8.01 5 -7.02 5 -6 5 C-6 4.34 -6 3.68 -6 3 C-4.03533587 1.93224776 -2.03144641 0.93446535 0 0 Z " fill="#7F9BAB" transform="translate(338,254)"/>
<path d="M0 0 C-1.26941497 3.91402949 -2.51167694 5.79072873 -6 8 C-6.66 6.68 -7.32 5.36 -8 4 C-4.5 0 -4.5 0 0 0 Z " fill="#8B8D89" transform="translate(357,248)"/>
<path d="M0 0 C1.65 0 3.3 0 5 0 C5.33 0.99 5.66 1.98 6 3 C5.67 3.66 5.34 4.32 5 5 C3.35 5 1.7 5 0 5 C-0.33 4.01 -0.66 3.02 -1 2 C-0.67 1.34 -0.34 0.68 0 0 Z " fill="#66ADCC" transform="translate(298,313)"/>
<path d="M0 0 C1.32 0.33 2.64 0.66 4 1 C3.67 2.65 3.34 4.3 3 6 C1.35 6 -0.3 6 -2 6 C-2.66 4.68 -3.32 3.36 -4 2 C-2.68 2 -1.36 2 0 2 C0 1.34 0 0.68 0 0 Z " fill="#BBBABB" transform="translate(316,267)"/>
<path d="M0 0 C-2.62198774 2.15377564 -4.64404172 3.40072174 -8 4 C-7.67 4.99 -7.34 5.98 -7 7 C-8.65 7 -10.3 7 -12 7 C-9.5765288 2.1530576 -5.42072143 -1.80690714 0 0 Z " fill="#4B92B3" transform="translate(317,265)"/>
<path d="M0 0 C1.32 0.33 2.64 0.66 4 1 C1.69 3.64 -0.62 6.28 -3 9 C-3.66 8.34 -4.32 7.68 -5 7 C-3.35 4.69 -1.7 2.38 0 0 Z " fill="#4384A0" transform="translate(349,241)"/>
<path d="M0 0 C1.32 0 2.64 0 4 0 C4 0.99 4 1.98 4 3 C5.32 3 6.64 3 8 3 C8.66 4.65 9.32 6.3 10 8 C6.01328937 6.63312778 3.11505367 4.84804907 0 2 C0 1.34 0 0.68 0 0 Z " fill="#5BABCA" transform="translate(284,232)"/>
<path d="M0 0 C0.33 0.66 0.66 1.32 1 2 C-0.98 2.33 -2.96 2.66 -5 3 C-5 3.66 -5 4.32 -5 5 C-2.69 5.33 -0.38 5.66 2 6 C2 6.33 2 6.66 2 7 C-5.75 7.125 -5.75 7.125 -8 6 C-7.67 4.35 -7.34 2.7 -7 1 C-3.535 0.505 -3.535 0.505 0 0 Z " fill="#7BC1DB" transform="translate(258,331)"/>
<path d="M0 0 C0.33 2.31 0.66 4.62 1 7 C-0.32 7.33 -1.64 7.66 -3 8 C-3 7.01 -3 6.02 -3 5 C-3.66 5 -4.32 5 -5 5 C-5 4.01 -5 3.02 -5 2 C-2 0 -2 0 0 0 Z " fill="#7C7C7E" transform="translate(350,249)"/>
<path d="M0 0 C3.48331435 3.01887244 4.79157144 5.56909529 6 10 C5.34 10 4.68 10 4 10 C3.67 8.68 3.34 7.36 3 6 C1.35 5.67 -0.3 5.34 -2 5 C-2 4.34 -2 3.68 -2 3 C-1.34 3 -0.68 3 0 3 C0 2.01 0 1.02 0 0 Z " fill="#61D2F1" transform="translate(356,315)"/>
<path d="M0 0 C2.69082872 0.17635452 5.32851446 0.61835921 8 1 C5.37801226 3.15377564 3.35595828 4.40072174 0 5 C-0.5625 3.0625 -0.5625 3.0625 -1 1 C-0.67 0.67 -0.34 0.34 0 0 Z " fill="#A1B2B6" transform="translate(316,258)"/>
<path d="M0 0 C2.4375 0.1875 2.4375 0.1875 5 1 C6.3125 3.0625 6.3125 3.0625 7 5 C3 5 3 5 0.75 3 C0.1725 2.34 -0.405 1.68 -1 1 C-0.67 0.67 -0.34 0.34 0 0 Z " fill="#4EA7CC" transform="translate(302,244)"/>
<path d="M0 0 C0.66 0 1.32 0 2 0 C1.67 2.64 1.34 5.28 1 8 C-2.57575896 8 -4.05295935 6.91159393 -7 5 C-4.3333581 3.66667905 -2.83319697 4.32897967 0 5 C0 3.35 0 1.7 0 0 Z " fill="#74B5CD" transform="translate(360,202)"/>
<path d="M0 0 C0.66 0 1.32 0 2 0 C2 0.66 2 1.32 2 2 C4.97 2.495 4.97 2.495 8 3 C7.34 4.98 6.68 6.96 6 9 C3.59927045 6.11912454 1.52708963 3.43595166 0 0 Z " fill="#65D4F1" transform="translate(352,327)"/>
<path d="M0 0 C4.10958767 1.45044271 7.43258745 3.51110752 11 6 C8.39417629 6.93065133 7.35801776 7.14917407 4.75 6.0625 C3.88375 5.5365625 3.88375 5.5365625 3 5 C3 4.34 3 3.68 3 3 C2.34 3 1.68 3 1 3 C0.67 2.01 0.34 1.02 0 0 Z " fill="#69CBE7" transform="translate(340,304)"/>
<path d="M0 0 C0.66 0 1.32 0 2 0 C2 0.99 2 1.98 2 3 C2.66 3.33 3.32 3.66 4 4 C3.34 4 2.68 4 2 4 C2 4.66 2 5.32 2 6 C-3.75 9 -3.75 9 -6 9 C-6 8.34 -6 7.68 -6 7 C-5.195625 6.54625 -4.39125 6.0925 -3.5625 5.625 C-0.84763807 4.26579005 -0.84763807 4.26579005 -0.1875 1.8125 C-0.125625 1.214375 -0.06375 0.61625 0 0 Z " fill="#80959E" transform="translate(334,248)"/>
<path d="M0 0 C-3.40219265 2.74792483 -7.48464588 6 -12 6 C-12 5.34 -12 4.68 -12 4 C-11.01 4 -10.02 4 -9 4 C-8.67 3.01 -8.34 2.02 -8 1 C-5.07175348 0.02391783 -3.04386724 -0.08226668 0 0 Z " fill="#298CB7" transform="translate(328,247)"/>
<path d="M0 0 C3.15330554 0.60694155 5.18888867 1.6416665 7.75 3.5625 C8.67039062 4.24505859 8.67039062 4.24505859 9.609375 4.94140625 C10.29773438 5.46541016 10.29773438 5.46541016 11 6 C9.68 6.33 8.36 6.66 7 7 C6.34 6.01 5.68 5.02 5 4 C2.44816596 2.79549696 2.44816596 2.79549696 0 2 C0 1.34 0 0.68 0 0 Z " fill="#64AED0" transform="translate(309,200)"/>
<path d="M0 0 C0 1.32 0 2.64 0 4 C-2.31 4 -4.62 4 -7 4 C-7 3.01 -7 2.02 -7 1 C-4.50935112 0.31292445 -2.62113708 0 0 0 Z " fill="#218DC0" transform="translate(331,326)"/>
<path d="M0 0 C5.75 -0.125 5.75 -0.125 8 1 C8.75 3.375 8.75 3.375 9 6 C8.01 7.485 8.01 7.485 7 9 C6.773125 8.05125 6.54625 7.1025 6.3125 6.125 C5.30916286 2.80676612 5.30916286 2.80676612 2.375 1.625 C1.59125 1.41875 0.8075 1.2125 0 1 C0 0.67 0 0.34 0 0 Z " fill="#56A8CA" transform="translate(256,326)"/>
<path d="M0 0 C0.33 0 0.66 0 1 0 C1.268125 1.2375 1.53625 2.475 1.8125 3.75 C2.63881995 7.10283779 3.62671274 9.41095936 6 12 C5.01 12 4.02 12 3 12 C0.16987062 8.69818239 -1.07653104 7.03316905 -0.75 2.625 C-0.5025 1.75875 -0.255 0.8925 0 0 Z " fill="#6DB0D0" transform="translate(235,288)"/>
<path d="M0 0 C0.66 0.33 1.32 0.66 2 1 C1.41196203 4.02419525 0.77321882 7.01758453 0 10 C-0.66 10 -1.32 10 -2 10 C-2.25 3.375 -2.25 3.375 0 0 Z " fill="#0A7BB3" transform="translate(297,273)"/>
<path d="M0 0 C3 1 3 1 4 3 C4.99 3.33 5.98 3.66 7 4 C4.29120665 5.35439668 1.99066732 5.06501451 -1 5 C-1.33 3.68 -1.66 2.36 -2 1 C-1.34 0.67 -0.68 0.34 0 0 Z " fill="#A1A8AB" transform="translate(321,254)"/>
<path d="M0 0 C0.66 0 1.32 0 2 0 C3.28317892 3.84953676 3.06643637 6.94738135 3 11 C1.5 10 1.5 10 0 8 C-0.27345479 5.28153765 -0.13491285 2.74322801 0 0 Z " fill="#9E9D9D" transform="translate(353,224)"/>
<path d="M0 0 C0.33 0 0.66 0 1 0 C1 3.96 1 7.92 1 12 C0.01 12.33 -0.98 12.66 -2 13 C-1.85769192 11.58297487 -1.71099254 10.1663904 -1.5625 8.75 C-1.48128906 7.96109375 -1.40007812 7.1721875 -1.31640625 6.359375 C-1.02365007 4.17635361 -0.57935581 2.1226818 0 0 Z " fill="#66AFD3" transform="translate(266,146)"/>
<path d="M0 0 C0.66 0.66 1.32 1.32 2 2 C1.625 4.625 1.625 4.625 1 7 C-1.88437779 5.70700306 -3.87219421 4.34058637 -6 2 C-4.7934375 1.7834375 -4.7934375 1.7834375 -3.5625 1.5625 C-1.07896294 1.25864751 -1.07896294 1.25864751 0 0 Z " fill="#55C8EA" transform="translate(352,303)"/>
<path d="M0 0 C-1 3 -1 3 -3.3125 4.1875 C-6 5 -6 5 -10 5 C-10.33 5.66 -10.66 6.32 -11 7 C-11 6.01 -11 5.02 -11 4 C-9.5437455 3.32880451 -8.08492133 2.66318193 -6.625 2 C-5.81289063 1.62875 -5.00078125 1.2575 -4.1640625 0.875 C-2 0 -2 0 0 0 Z " fill="#9DB5BF" transform="translate(326,262)"/>
<path d="M0 0 C1.65 0 3.3 0 5 0 C5 0.66 5 1.32 5 2 C5.99 2.33 6.98 2.66 8 3 C9.1875 5.0625 9.1875 5.0625 10 7 C8.51719804 6.21516341 7.0388502 5.42190666 5.5625 4.625 C4.73878906 4.18414062 3.91507812 3.74328125 3.06640625 3.2890625 C1 2 1 2 0 0 Z " fill="#69C5E0" transform="translate(332,311)"/>
<path d="M0 0 C2.475 0.495 2.475 0.495 5 1 C5 1.99 5 2.98 5 4 C3.02 4.99 3.02 4.99 1 6 C0.67 4.02 0.34 2.04 0 0 Z " fill="#1081BB" transform="translate(308,275)"/>
<path d="M0 0 C0.99 0.33 1.98 0.66 3 1 C3 1.66 3 2.32 3 3 C3.66 3 4.32 3 5 3 C5.33 4.98 5.66 6.96 6 9 C5.236875 8.21625 4.47375 7.4325 3.6875 6.625 C1.09108195 3.92742283 1.09108195 3.92742283 -2 2 C-1.34 1.34 -0.68 0.68 0 0 Z " fill="#3199CF" transform="translate(341,265)"/>
<path d="M0 0 C3.5786304 1.65167557 6.74820188 3.78286492 10 6 C8.375 6.8125 8.375 6.8125 6 7 C2.75 4.6875 2.75 4.6875 0 2 C0 1.34 0 0.68 0 0 Z " fill="#65B1D1" transform="translate(323,209)"/>
<path d="M0 0 C5.75 -0.125 5.75 -0.125 8 1 C8 1.66 8 2.32 8 3 C8.66 3.33 9.32 3.66 10 4 C9.34 4 8.68 4 8 4 C8 4.66 8 5.32 8 6 C7.01 6 6.02 6 5 6 C5 4.68 5 3.36 5 2 C3.35 1.67 1.7 1.34 0 1 C0 0.67 0 0.34 0 0 Z " fill="#1F90BF" transform="translate(253,329)"/>
<path d="M0 0 C1.67542976 0.28604898 3.34385343 0.61781233 5 1 C5 2.65 5 4.3 5 6 C4.34 5.01 3.68 4.02 3 3 C2.01 2.67 1.02 2.34 0 2 C0 3.98 0 5.96 0 8 C-0.33 8 -0.66 8 -1 8 C-1.04241723 5.66705225 -1.04092937 3.33297433 -1 1 C-0.67 0.67 -0.34 0.34 0 0 Z " fill="#58A7C9" transform="translate(309,323)"/>
<path d="M0 0 C3.98175544 2.10148204 6.35039045 4.36905358 9 8 C7.35 8 5.7 8 4 8 C3.71125 7.195625 3.4225 6.39125 3.125 5.5625 C2.26737432 2.8673532 2.26737432 2.8673532 0 2 C0 1.34 0 0.68 0 0 Z " fill="#82D8ED" transform="translate(353,297)"/>
<path d="M0 0 C1.32 0 2.64 0 4 0 C4 1.98 4 3.96 4 6 C3.34 6 2.68 6 2 6 C2 5.01 2 4.02 2 3 C0.68 2.67 -0.64 2.34 -2 2 C-1.34 1.34 -0.68 0.68 0 0 Z " fill="#8E8B8D" transform="translate(334,245)"/>
<path d="M0 0 C3.9492568 0.55105909 7.34920174 1.38935371 11 3 C9.4375 4.25 9.4375 4.25 7 5 C4.42998985 3.93237266 2.3469597 2.53455057 0 1 C0 0.67 0 0.34 0 0 Z " fill="#5BB5D9" transform="translate(323,306)"/>
<path d="M0 0 C1.32 0.66 2.64 1.32 4 2 C3.34 3.32 2.68 4.64 2 6 C1.01 6 0.02 6 -1 6 C-1.33 5.01 -1.66 4.02 -2 3 C-1.34 2.01 -0.68 1.02 0 0 Z " fill="#25B0E5" transform="translate(342,293)"/>
<path d="M0 0 C0 1.32 0 2.64 0 4 C-4.455 4.495 -4.455 4.495 -9 5 C-4 0 -4 0 0 0 Z " fill="#2B8BBE" transform="translate(344,262)"/>
<path d="M0 0 C0.66 0.33 1.32 0.66 2 1 C2.33 1.99 2.66 2.98 3 4 C1.02 4.99 1.02 4.99 -1 6 C-1.66 5.01 -2.32 4.02 -3 3 C-2.01 2.01 -1.02 1.02 0 0 Z " fill="#8E9CA0" transform="translate(333,262)"/>
<path d="M0 0 C0.33 0.66 0.66 1.32 1 2 C1.66 2.33 2.32 2.66 3 3 C1.29374499 5.78388975 0.52373261 6.85384206 -2.6875 7.75 C-3.8321875 7.87375 -3.8321875 7.87375 -5 8 C-5 7.34 -5 6.68 -5 6 C-3.68 5.67 -2.36 5.34 -1 5 C-0.67 3.35 -0.34 1.7 0 0 Z " fill="#778F96" transform="translate(341,257)"/>
<path d="M0 0 C0.99 0 1.98 0 3 0 C3 0.66 3 1.32 3 2 C3.66 2.33 4.32 2.66 5 3 C5 3.99 5 4.98 5 6 C4.01 6 3.02 6 2 6 C1.34 4.02 0.68 2.04 0 0 Z " fill="#0A7CB6" transform="translate(301,274)"/>
<path d="M0 0 C3.96 0 7.92 0 12 0 C12 0.33 12 0.66 12 1 C8.37 1.66 4.74 2.32 1 3 C0.67 2.01 0.34 1.02 0 0 Z " fill="#258BBB" transform="translate(285,273)"/>
<path d="M0 0 C1.65 0 3.3 0 5 0 C5.33 0.99 5.66 1.98 6 3 C6.66 3.33 7.32 3.66 8 4 C7.67 4.66 7.34 5.32 7 6 C5.83054208 5.19152271 4.66449539 4.37810888 3.5 3.5625 C2.8503125 3.11003906 2.200625 2.65757812 1.53125 2.19140625 C1.0259375 1.79824219 0.520625 1.40507812 0 1 C0 0.67 0 0.34 0 0 Z " fill="#6CB4D3" transform="translate(274,226)"/>
<path d="M0 0 C2.31 0.33 4.62 0.66 7 1 C7.33 2.32 7.66 3.64 8 5 C4.62496331 3.8141763 2.35277269 2.72426311 0 0 Z " fill="#61B0D1" transform="translate(332,193)"/>
<path d="M0 0 C0.33 0.99 0.66 1.98 1 3 C0.34 3.66 -0.32 4.32 -1 5 C-1.40047444 7.32275177 -1.7397104 9.65739357 -2 12 C-2.33 12 -2.66 12 -3 12 C-3.125 4.375 -3.125 4.375 -2 1 C-1.34 0.67 -0.68 0.34 0 0 Z " fill="#228CBE" transform="translate(259,192)"/>
<path d="M0 0 C0.2475 0.5775 0.495 1.155 0.75 1.75 C2.16683317 4.3002997 3.87627537 6.01785701 6 8 C4.35 7.67 2.7 7.34 1 7 C1 6.34 1 5.68 1 5 C0.34 5 -0.32 5 -1 5 C-0.67 3.35 -0.34 1.7 0 0 Z " fill="#6AB3D4" transform="translate(297,187)"/>
<path d="M0 0 C0.66 0 1.32 0 2 0 C1.1875 2.4375 1.1875 2.4375 0 5 C-0.99 5.33 -1.98 5.66 -3 6 C-3 4.68 -3 3.36 -3 2 C-2.01 2 -1.02 2 0 2 C0 1.34 0 0.68 0 0 Z " fill="#57A9C7" transform="translate(316,330)"/>
<path d="M0 0 C-1 3 -1 3 -2 5 C-2.99 5 -3.98 5 -5 5 C-5 3.68 -5 2.36 -5 1 C-3 0 -3 0 0 0 Z " fill="#27B8EA" transform="translate(346,309)"/>
<path d="M0 0 C0 0.66 0 1.32 0 2 C-3.75 3.125 -3.75 3.125 -6 2 C-6 1.34 -6 0.68 -6 0 C-3.50907189 -1.24546405 -2.58919267 -0.7767578 0 0 Z " fill="#20A4D4" transform="translate(333,305)"/>
<path d="M0 0 C2.62187494 1.04874998 3.79371361 1.64931313 5.25 4.125 C5.4975 4.74375 5.745 5.3625 6 6 C4.125 5.8125 4.125 5.8125 2 5 C0.75 2.4375 0.75 2.4375 0 0 Z " fill="#66B2CD" transform="translate(365,146)"/>
</svg>
