<?xml version="1.0" standalone="no"?>
<!DOCTYPE svg PUBLIC "-//W3C//DTD SVG 20010904//EN"
 "http://www.w3.org/TR/2001/REC-SVG-20010904/DTD/svg10.dtd">
<svg version="1.0" xmlns="http://www.w3.org/2000/svg"
 width="500.000000pt" height="500.000000pt" viewBox="0 0 500.000000 500.000000"
 preserveAspectRatio="xMidYMid meet">

<g transform="translate(0.000000,500.000000) scale(0.100000,-0.100000)"
fill="#000000" stroke="none">
<path d="M1765 3528 c-9 -25 -135 -612 -135 -628 0 -10 114 -96 289 -218 l289
-201 -22 -103 -22 -103 -142 -3 c-78 -1 -142 1 -142 5 1 5 7 35 15 68 25 101
33 91 -151 204 -91 56 -168 101 -170 98 -6 -6 -124 -554 -124 -577 0 -11 8
-32 17 -47 34 -51 51 -53 474 -53 215 0 389 3 387 8 -2 4 -12 23 -22 44 l-19
36 72 334 c39 183 74 339 76 345 3 8 37 -8 97 -46 51 -32 96 -57 101 -54 4 2
7 14 7 27 0 18 -57 62 -290 226 -170 119 -289 209 -286 216 3 7 10 39 17 73
l12 61 140 0 140 0 -6 -32 c-3 -18 -9 -47 -12 -64 -7 -29 -4 -33 47 -64 29
-18 62 -39 74 -47 21 -13 22 -10 73 229 29 134 55 251 57 261 5 16 -20 17
-416 17 -327 0 -422 -3 -425 -12z"/>
<path d="M2657 3458 c-10 -46 -42 -192 -71 -326 l-53 -243 58 -40 c32 -21 62
-39 66 -39 4 0 1 5 -7 11 -13 9 -13 10 0 6 8 -2 15 -9 15 -17 0 -16 196 -151
212 -145 8 2 10 -2 6 -12 -4 -11 -2 -14 5 -9 7 4 12 3 12 -1 0 -12 91 -76 107
-76 7 0 11 -3 8 -5 -8 -9 48 -41 58 -35 6 3 7 1 4 -4 -4 -6 4 -18 18 -27 15
-10 22 -22 19 -31 -4 -8 -2 -15 2 -15 10 0 174 82 256 128 67 38 72 39 57 11
-8 -16 -8 -23 1 -29 9 -6 9 -9 0 -15 -9 -6 -9 -9 0 -15 20 -12 -59 -64 -214
-141 -76 -38 -132 -69 -124 -69 30 0 201 85 342 170 l39 23 -13 -23 c-7 -12
-10 -37 -7 -55 5 -30 2 -34 -56 -72 -87 -57 -221 -121 -250 -119 -14 0 -23 4
-21 8 6 9 -36 33 -56 33 -8 0 -25 19 -36 42 -24 47 -34 40 -34 -22 l0 -33
-111 -1 c-102 -2 -110 0 -105 16 3 10 12 49 20 86 13 62 12 69 -3 74 -9 4 -18
10 -21 13 -14 19 -141 91 -150 85 -6 -4 -9 -1 -8 7 2 7 -5 12 -14 12 -10 -1
-15 3 -11 9 4 6 0 8 -11 4 -9 -4 -15 -3 -11 2 3 5 -11 19 -31 32 -30 18 -38
20 -46 8 -8 -11 -9 -10 -4 3 3 10 1 20 -4 23 -6 4 -10 5 -10 3 0 -2 -29 -133
-64 -293 l-64 -290 24 -37 c13 -21 28 -38 32 -39 4 0 16 -2 27 -4 10 -2 26 2
34 8 12 9 13 9 7 0 -6 -10 66 -13 346 -13 270 0 357 -3 367 -12 10 -11 12 -9
9 7 -1 11 -10 26 -18 33 -13 10 -13 11 3 6 10 -4 17 -3 16 2 -7 41 3 40 113
-7 88 -38 97 -36 23 4 -102 56 -100 54 -100 104 l0 45 39 -6 c21 -4 52 -14 70
-23 17 -10 33 -17 36 -18 3 0 11 -4 18 -9 7 -4 16 -5 19 -2 9 9 54 219 48 224
-3 3 0 11 5 18 6 6 12 28 14 47 2 26 16 50 49 87 48 54 64 99 53 146 -7 27 -7
26 -28 -15 -27 -55 -40 -52 -23 7 8 26 15 62 15 80 0 32 0 32 -20 12 -11 -11
-26 -17 -35 -14 -21 8 -19 18 3 10 10 -4 7 2 -8 14 -14 11 -31 18 -38 15 -7
-3 -10 -1 -7 4 8 13 -294 223 -308 215 -7 -4 -9 -4 -5 1 8 9 -37 47 -111 95
-40 25 -50 37 -53 65 -2 18 -1 32 3 29 9 -5 20 52 13 71 -4 8 -1 15 6 15 6 0
8 5 5 10 -4 6 45 10 141 10 l147 0 -6 -37 c-4 -21 -9 -53 -13 -70 -5 -26 -3
-34 12 -41 11 -4 43 -23 73 -42 30 -19 55 -33 56 -30 1 3 9 -2 17 -11 21 -20
168 -112 172 -108 4 5 66 279 70 311 2 13 6 30 9 38 11 31 37 163 37 189 -1
34 -24 65 -42 55 -7 -4 -10 -4 -6 1 4 4 3 14 -3 21 -9 11 -110 13 -498 14
l-487 0 -17 -82z m319 -413 c1 -8 -1 -17 -5 -19 -4 -3 -7 6 -7 19 0 25 8 25
12 0z m568 -63 c3 -5 -1 -9 -9 -9 -8 0 -12 4 -9 9 3 4 7 8 9 8 2 0 6 -4 9 -8z
m-929 -82 c3 -6 -1 -7 -9 -4 -18 7 -21 14 -7 14 6 0 13 -4 16 -10z m610 -29
c3 -5 2 -12 -3 -15 -5 -3 -9 1 -9 9 0 17 3 19 12 6z m72 -36 c0 -8 -4 -12 -9
-9 -5 3 -6 10 -3 15 9 13 12 11 12 -6z m93 -60 c0 -2 -5 -7 -12 -11 -7 -4 -8
-3 -4 4 9 15 -7 15 -21 1 -10 -10 -12 0 -4 29 1 4 41 -18 41 -23z m-439 -132
c13 -16 12 -17 -3 -4 -17 13 -22 21 -14 21 2 0 10 -8 17 -17z m-370 -100 c13
-16 12 -17 -3 -4 -17 13 -22 21 -14 21 2 0 10 -8 17 -17z m891 -90 c-3 -16 -7
-22 -10 -15 -4 13 4 42 11 42 2 0 2 -12 -1 -27z"/>
</g>
</svg>
